<?xml version="1.0" standalone="no"?><!DOCTYPE svg PUBLIC "-//W3C//DTD SVG 1.1//EN" "http://www.w3.org/Graphics/SVG/1.1/DTD/svg11.dtd"><svg t="1585917487001" class="icon" viewBox="0 0 1024 1024" version="1.1" xmlns="http://www.w3.org/2000/svg" p-id="5639" xmlns:xlink="http://www.w3.org/1999/xlink" width="200" height="200"><defs><style type="text/css"></style></defs><path d="M794.4 95.6l-160.3 0.7 0.5 112.8 159.9-0.7c28.4 0 51.4 23.1 51.4 51.5v129.4h112.8V260c0.1-90.6-73.7-164.4-164.3-164.4zM228.2 811.7c-28.4 0-51.4-23.1-51.4-51.5V630.8H63.9v129.4c0 90.6 73.7 164.4 164.4 164.4h0.1l160.2-0.7-0.5-112.9-159.9 0.7zM178.3 208.6l208.3 0.6 0.3-112.8-245.8-0.7h-0.2c-41.6 0-75.5 33.9-75.5 75.5v218.3h112.8V208.6zM845.9 811.6l-205.1-0.6-0.3 112.8 244.8 0.7h0.2c40.4 0 73.3-32.9 73.3-73.3V644.9H845.9v166.7zM253.5 453.7h550.1v112.8H253.5z" fill="" p-id="5640"></path></svg>