<?xml version="1.0" standalone="no"?><!DOCTYPE svg PUBLIC "-//W3C//DTD SVG 1.1//EN" "http://www.w3.org/Graphics/SVG/1.1/DTD/svg11.dtd"><svg t="1586448527839" class="icon" viewBox="0 0 1024 1024" version="1.1" xmlns="http://www.w3.org/2000/svg" p-id="1621" xmlns:xlink="http://www.w3.org/1999/xlink" width="200" height="200"><defs><style type="text/css"></style></defs><path d="M133 909.5c0-24.6 169.7-44.5 379-44.5s379 19.9 379 44.5S721.3 954 512 954s-379-19.9-379-44.5z" fill="#EDEDEE" p-id="1622"></path><path d="M430 481h163v148H430z" fill="#FCC29A" p-id="1623"></path><path d="M358.6 564h306.8c47.8 0 86.6 38.8 86.6 86.6v125.9c0 17.9-14.5 32.5-32.5 32.5h-415c-17.9 0-32.5-14.5-32.5-32.5V650.6c0-47.8 38.8-86.6 86.6-86.6z" fill="#F99552" p-id="1624"></path><path d="M421 554l86.5 79 86.5-79H421z" fill="#FCC29A" p-id="1625"></path><path d="M385 251.2l38.2-112.4c2.6-7.6 9.8-12.8 17.9-12.8h142.8c8.1 0 15.3 5.1 17.9 12.8L640 251.2c4.1 12.2-5 24.8-17.9 24.8H402.9c-12.9 0-22-12.6-17.9-24.8" fill="#FED572" p-id="1626"></path><path d="M260 292c0-32.6 112.8-59 252-59s252 26.4 252 59-112.8 59-252 59-252-26.4-252-59z" fill="#FDC435" p-id="1627"></path><path d="M512.1 269.8c23.7 0.3 46.9 2.2 69.3 5.4L603 279l2.3 2.1c16.8 17.3 28.1 39 31.1 62.9l0.4 6.2 1.9-0.5c1.4-0.2 2.8-0.2 4.2 0 11.3 1.6 18.7 15.3 16.6 30.5-1.9 13.4-10.5 23.5-20.2 24.8h-1.4v1.1c0.9 61.8-53.7 111.2-122.1 110.3-68.4-0.9-124.6-51.8-125.5-113.7v-1.1h-1c-9.7-1.5-18.6-11.9-20.9-25.4-2.6-15.3 4.4-28.8 15.7-30.1 1.4-0.2 2.8-0.1 4.2 0.1l1.6 0.5 0.2-6.1c2.3-23.8 12.9-45.3 29.2-62.1l2.2-2.1 21.5-3.2c22.3-2.5 45.4-3.8 69.1-3.4z" fill="#FDD5B9" p-id="1628"></path><path d="M474.4 462c10.8 0 29.6-5.4 37.7-21.5 8.1 16.1 26.9 21.5 37.7 21.5 35 0 40.3-24.2 40.3-24.2-2.7 2.7-8.1 5.4-16.1 5.4-13.4 0-16.1-24.2-35-24.2-18.8 0-26.9 13.4-26.9 13.4S504 419 485.2 419c-18.8 0-21.5 24.2-35 24.2-8.1 0-13.4-2.7-16.1-5.4-0.1 0 5.3 24.2 40.3 24.2zM428.5 276h12.3l0.9 1c4.6 6.9 7.3 15.1 7.3 24 0 23.7-19.2 42.9-42.8 42.9-3 0-5.8-0.3-8.6-0.9l-5.6-1.7V288l0.9-4.6 13.4-3.5 22.2-3.9zM595.5 274h-12.3l-0.9 1c-4.6 6.9-7.3 15.1-7.3 24 0 23.7 19.2 42.9 42.8 42.9 3 0 5.8-0.3 8.6-0.9l5.6-1.7V286l-0.9-4.6-13.4-3.5-22.2-3.9z" fill="#EEEFF3" p-id="1629"></path><path d="M423.7 542c2.1-0.1 4.3 0.6 6 2.1l82.3 70.2 82.3-70.2c3.5-3 8.6-2.8 11.8 0.5l14.3 14.3c3 3 3.4 7.9 0.9 11.3L562 651.4c-2.8 3.8-8 4.7-11.9 2.1l-37.6-25.1-0.5-0.6-0.5 0.6-37.6 25.1c-3.9 2.6-9.1 1.7-11.9-2.1l-59.3-81.2c-2.5-3.5-2.2-8.3 0.9-11.3l14.3-14.3c1.6-1.7 3.7-2.5 5.8-2.6z" fill="#FDC435" p-id="1630"></path><path d="M353.7 697h316.7c10.3 0 18.7 8.4 18.7 18.7V809H335v-93.3c0-10.3 8.4-18.7 18.7-18.7z" fill="#7CD0A4" p-id="1631"></path><path d="M369 734c-8.3 0-15-6.7-15-15V564h30v155c0 8.3-6.7 15-15 15zM651 732c-8.3 0-15-6.7-15-15V562h30v155c0 8.3-6.7 15-15 15z" fill="#4ABE81" p-id="1632"></path><path d="M362 715.5c0-4.7 3.6-8.5 8-8.5s8 3.8 8 8.5-3.6 8.5-8 8.5-8-3.8-8-8.5zM644 714c0-4.4 3.6-8 8-8s8 3.6 8 8-3.6 8-8 8-8-3.6-8-8z" fill="#FCC29A" p-id="1633"></path></svg>