<?xml version="1.0" standalone="no"?><!DOCTYPE svg PUBLIC "-//W3C//DTD SVG 1.1//EN" "http://www.w3.org/Graphics/SVG/1.1/DTD/svg11.dtd"><svg t="1586448507556" class="icon" viewBox="0 0 1024 1024" version="1.1" xmlns="http://www.w3.org/2000/svg" p-id="973" xmlns:xlink="http://www.w3.org/1999/xlink" width="200" height="200"><defs><style type="text/css"></style></defs><path d="M133 909.5c0-24.6 169.7-44.5 379-44.5s379 19.9 379 44.5S721.3 954 512 954s-379-19.9-379-44.5z" fill="#EDEDEE" p-id="974"></path><path d="M287.2 222.4l-0.6-1.3-0.4-1.3-0.2-1.4V217l0.2-1.3 0.4-1.3 0.6-1.2 0.8-1.1 1-1 1.2-0.8 1.3-0.6 1.3-0.4 1.4-0.2h1.4l1.3 0.2 1.3 0.4 1.2 0.6 1.1 0.8 1 1 0.8 1.2 0.3 0.4 0.3 0.4 0.3 0.4 0.3 0.4 0.3 0.4 0.3 0.4 0.3 0.4 0.3 0.4 0.3 0.4 0.3 0.4 0.3 0.4 0.3 0.4 0.3 0.4 0.3 0.4 0.3 0.4 0.3 0.4 0.3 0.4 0.3 0.4 0.3 0.4 0.3 0.4 0.3 0.4 0.3 0.4 0.3 0.4 0.3 0.4 0.3 0.4 0.3 0.4 0.3 0.4 0.3 0.4 0.3 0.4 0.3 0.4 0.3 0.4 0.3 0.4 0.3 0.4 0.3 0.4 0.3 0.4 0.3 0.5 0.3 0.5 0.3 0.5 0.3 0.5 0.3 0.5 0.3 0.5 0.3 0.5 0.3 0.5 0.2 0.5 0.3 0.5 0.2 0.5 0.2 0.5 0.2 0.5 0.2 0.5 0.2 0.5 0.2 0.5 0.2 0.5 0.2 0.5 0.2 0.5 0.2 0.5 0.2 0.5 0.2 0.5 0.2 0.5 0.2 0.5 0.2 0.5 0.2 0.5 0.2 0.5 0.2 0.5 0.2 0.5 0.2 0.5 0.2 0.5 0.2 0.5 0.2 0.5 0.2 0.5 0.2 0.5 0.2 0.5 0.2 0.5 0.2 0.5 0.2 0.5 0.2 0.5 0.2 0.5 0.2 0.5 0.2 0.5 0.2 0.5 0.2 0.5 0.2 0.5 0.2 0.5 0.2 0.5 0.2 0.5 0.2 0.5 0.2 0.6 0.2 0.6 0.2 0.6 0.2 0.6 0.2 0.6 0.2 0.6 0.2 0.6 0.2 0.6 0.2 0.6 0.2 0.6 0.2 0.6 0.2 0.6 0.2 0.6 0.4 1.2 0.2 0.7 0.2 0.6 0.2 0.7 0.2 0.7 0.2 0.7 0.2 0.7 0.2 0.7 0.2 0.7 0.2 0.7 0.2 0.7 0.2 0.7 0.2 0.7 0.2 0.7 0.2 0.7 0.2 0.7 0.2 0.7 0.2 0.7 0.2 0.7 0.1 0.7 0.1 0.7 0.1 0.7 0.1 0.7 0.1 0.7 0.1 0.7 0.1 0.7 0.1 0.7 0.1 0.7 0.1 0.7 0.1 0.7 0.1 0.7 0.1 0.7 0.1 0.7 0.1 0.7 0.1 0.7 0.1 0.7 0.1 0.7 0.1 0.7 0.1 0.7 0.1 0.7 0.1 0.7 0.1 0.7 0.1 0.7 0.1 0.7 0.1 0.7 0.1 0.7 0.1 0.7 0.1 0.7 0.1 0.7 0.1 0.7 0.1 0.7 0.1 0.7 0.1 0.7 0.1 0.7 0.1 0.7 0.1 0.7 0.1 0.7 0.1 0.7 0.1 0.7 0.1 0.7 0.1 0.7 0.1 0.7 0.1 0.7 0.1 0.7 0.1 0.7 0.1 0.7 0.1 0.7 0.1 0.7 0.1 0.6 0.1 0.6 0.1 0.6 0.1 0.6 0.1 0.6 0.2 0.6 0.2 0.6 0.2 0.6 0.2 0.6 0.2 0.6 0.2 0.6 0.2 0.6 0.2 0.6 0.2 0.6 0.2 0.6 0.2 0.5 0.2 0.5 0.2 0.5 0.2 0.5 0.2 0.5 0.2 0.5 0.2 0.5 0.2 0.5 0.2 0.5 0.2 0.5 0.2 0.5 0.2 0.4 0.2 0.4 0.2 0.4 0.2 0.4 0.2 0.4 0.5 0.8 0.2 0.4 0.2 0.4 0.2 0.4 0.2 0.4 0.3 0.4 0.3 0.4 0.3 0.4 0.3 0.4 0.3 0.4 0.3 0.4 0.3 0.4 0.3 0.4 0.3 0.4 0.3 0.4 0.3 0.4 0.3 0.4 0.3 0.4 0.3 0.4 0.3 0.4 0.3 0.4 0.3 0.4 0.3 0.4 0.3 0.3 0.3 0.3 0.3 0.3 0.3 0.3 0.3 0.3 0.3 0.3 0.3 0.3 0.3 0.3 0.3 0.3 0.3 0.3 0.3 0.3 0.3 0.3 0.3 0.3 0.3 0.3 0.3 0.3 0.3 0.3 0.3 0.3 0.4 0.3 0.4 0.3 0.4 0.3 0.4 0.3 0.4 0.3 0.4 0.3 0.4 0.3 0.4 0.3 0.4 0.3 0.4 0.3 0.4 0.3 0.4 0.3 0.4 0.3 0.4 0.3 0.4 0.3 0.4 0.3 0.4 0.3 0.4 0.3 0.4 0.3 0.4 0.3 0.4 0.3 0.4 0.3 0.4 0.3 0.4 0.3 0.4 0.3 0.4 0.3 0.4 0.3 0.4 0.3 0.4 0.3 0.4 0.3 0.4 0.3 0.4 0.3 0.4 0.3 0.4 0.3 0.4 0.3 0.4 0.3 0.4 0.3 0.4 0.3 0.4 0.3 0.4 0.3 0.4 0.3 0.4 0.3 0.4 0.3 0.4 0.3 0.4 0.3 0.4 0.3 0.4 0.3 0.4 0.3 0.5 0.3 0.5 0.3 0.5 0.3 0.5 0.3 0.5 0.3 0.5 0.3 0.5 0.3 0.5 0.3 0.5 0.3 0.5 0.3 0.5 0.3 0.9 0.5 2.2 1.8 1.5 2.3 0.7 2.6-0.1 2.7-1 2.7-1.8 2.2-2.3 1.5-2.6 0.7-2.7-0.1-2.7-1-0.9-0.5-0.5-0.3-0.5-0.3-0.5-0.3-0.5-0.3-0.5-0.3-0.5-0.3-0.5-0.3-0.5-0.3-0.5-0.3-0.5-0.3-0.5-0.3-0.5-0.3-0.5-0.3-0.5-0.3-0.5-0.3-0.5-0.3-0.5-0.3-0.5-0.3-0.5-0.3-0.5-0.3-0.5-0.3-0.5-0.3-0.5-0.3-0.5-0.3-0.5-0.3-0.5-0.3-0.5-0.3-0.5-0.3-0.5-0.3-0.5-0.3-0.5-0.3-0.5-0.3-0.5-0.3-0.5-0.3-0.5-0.3-0.5-0.3-0.5-0.3-0.5-0.3-0.5-0.3-0.5-0.3-0.5-0.3-0.5-0.3-0.5-0.3-0.5-0.3-0.5-0.3-0.5-0.3-0.5-0.3-0.5-0.3-0.5-0.4-0.5-0.4-0.5-0.4-0.5-0.4-0.5-0.4-0.5-0.4-0.4-0.4-0.4-0.4-0.4-0.4-0.4-0.4-0.4-0.4-0.4-0.4-0.4-0.4-0.4-0.4-0.4-0.4-0.4-0.4-0.4-0.4-0.4-0.4-0.4-0.4-0.4-0.4-0.4-0.4-0.4-0.4-0.4-0.4-0.4-0.4-0.4-0.4-0.4-0.4-0.4-0.5-0.4-0.5-0.4-0.5-0.4-0.5-0.4-0.5-0.4-0.5-0.4-0.5-0.4-0.5-0.4-0.5-0.4-0.5-0.4-0.5-0.4-0.5-0.4-0.5-0.4-0.5-0.4-0.5-0.4-0.5-0.4-0.5-0.4-0.5-0.3-0.5-0.3-0.5-0.3-0.6-0.3-0.6-0.3-0.6-0.3-0.6-0.6-1.2-0.3-0.6-0.3-0.6-0.3-0.6-0.3-0.6-0.3-0.7-0.3-0.7-0.3-0.7-0.3-0.7-0.3-0.7-0.3-0.7-0.3-0.7-0.2-0.7-0.2-0.7-0.2-0.7-0.2-0.7-0.2-0.7-0.2-0.7-0.2-0.7-0.2-0.7-0.2-0.7-0.2-0.7-0.2-0.7-0.2-0.7-0.2-0.7-0.2-0.7-0.2-0.7-0.2-0.7-0.2-0.7-0.2-0.7-0.2-0.7-0.2-0.7-0.2-0.7-0.2-0.7-0.1-0.7-0.1-0.7-0.1-0.7-0.1-0.7-0.1-0.7-0.1-0.7-0.1-0.7-0.1-0.7 1.5-1.7-0.1-0.7-0.1-0.7-0.1-0.7-0.1-0.7-0.1-0.7-0.1-0.7-0.1-0.7-0.1-0.7-0.1-0.7-0.1-0.7-0.1-0.7-0.1-0.7-0.1-0.7-0.1-0.7-0.1-0.7-0.1-0.7-0.1-0.7-0.1-0.7-0.1-0.7-0.1-0.7-0.1-0.7-0.1-0.7-0.1-0.7-0.1-0.7-0.1-0.7-0.1-0.7-0.1-0.7-0.1-0.7-0.1-0.7-0.1-0.7-0.1-0.7-0.1-0.7-0.1-0.7-0.7-0.9-0.1-0.6-0.1-0.6-0.1-0.6-0.1-0.6-0.1-0.6-0.1-0.6-0.1-0.6-0.1-0.6-0.1-0.6-0.1-0.6-0.1-0.6-0.1-0.6-0.1-0.6-0.1-0.6-0.2-0.5-0.2-0.5-0.2-0.5-0.2-0.5-0.2-0.5-0.2-0.5-0.2-0.5-0.2-0.4-0.4-1.1-0.2-0.5-0.2-0.5-0.2-0.5-0.2-0.5-0.2-0.5-0.2-0.5-0.2-0.5-0.2-0.5-0.2-0.5-0.2-0.5-0.2-0.5-0.2-0.5-0.2-0.5-0.2-0.5-0.2-0.5-0.2-0.5-0.2-0.5-0.2-0.5-0.2-0.5-0.2-0.5-0.2-0.5-0.2-0.5-0.2-0.5-0.2-0.5-0.2-0.5-0.2-0.5-0.2-0.5-0.2-0.5-0.2-0.5-0.2-0.5-0.2-0.5-0.2-0.5-0.2-0.5-0.2-0.5-0.2-0.5-0.2-0.5-0.2-0.5-0.2-0.5-0.2-0.4-0.2-0.4-0.2-0.4-0.2-0.4-0.2-0.4-0.2-0.4-0.2-0.4-0.2-0.4-0.2-0.4-0.2-0.4-0.2-0.4-0.2-0.4-0.2-0.4-0.2-0.4-0.2-0.4-0.2-0.4-0.2-0.4-0.2-0.4-0.2-0.4-0.2-0.4-0.2-0.4-0.2-0.4-0.2-0.4-0.2-0.4-0.2-0.4-0.2-0.4-0.2-0.4-0.2-0.4-0.2-0.4-0.2-0.4-0.2-0.4-0.2-0.4-0.2-0.4-0.2-0.4-0.2-0.4-0.2-0.4-0.2-0.4-0.2-0.4-0.2-0.4-0.2-0.4-0.2-0.4-0.2-0.4-0.2-0.4-0.2-0.4-0.2-0.4-0.2-0.4-0.2-0.4-0.2-0.4-2.4-1.4-0.2-0.4-0.2-0.4-0.2-0.4-0.2-0.4-0.3-0.4-0.2-0.4-0.3-0.4-0.3-0.4-0.3-0.4-0.3-0.4-0.3-0.6zM242.4 566l-1.2 0.8-1.3 0.6-1.3 0.4-1.3 0.2h-1.4l-1.3-0.2-1.3-0.4-1.2-0.6-1.1-0.8-1-1-0.8-1.2-0.6-1.3-0.4-1.3-0.2-1.4v-1.4l0.2-1.3 0.4-1.3 0.6-1.2 0.8-1.1 1-1 0.5-0.4 0.5-0.4 0.5-0.4 0.5-0.4 0.5-0.4 0.5-0.4 0.5-0.4 0.5-0.4 0.5-0.4 0.5-0.4 0.5-0.4 0.5-0.4 0.5-0.4 0.5-0.4 0.5-0.4 0.5-0.4 0.5-0.4 0.5-0.4 0.5-0.4 0.5-0.4 0.5-0.4 0.5-0.4 0.5-0.4 0.5-0.4 0.5-0.4 0.5-0.4 0.5-0.4 0.5-0.4 0.5-0.4 0.5-0.4 0.5-0.4 0.5-0.4 0.5-0.4 0.5-0.4 0.5-0.4 0.5-0.4 0.5-0.4 0.5-0.4 0.5-0.4 0.5-0.4 0.4-0.4 0.4-0.4 0.4-0.4 0.4-0.4 0.4-0.4 0.4-0.4 0.4-0.4 0.4-0.4 0.4-0.4 0.4-0.4 0.4-0.4 0.4-0.4 0.4-0.4 0.4-0.4 0.4-0.4 0.4-0.4 0.4-0.4 0.4-0.4 0.4-0.4 0.4-0.4 0.4-0.4 0.4-0.4 0.4-0.4 0.4-0.4 0.4-0.4 0.4-0.4 0.4-0.4 0.4-0.4 0.4-0.4 0.4-0.4 0.4-0.4 0.4-0.4 0.4-0.4 0.4-0.4 0.4-0.4 0.4-0.4 0.4-0.4 0.4-0.4 0.4-0.4 0.4-0.4 0.4-0.4 0.4-0.4 0.4-0.4 0.4-0.4 0.4-0.4 0.4-0.4 0.4-0.4 0.4-0.4 0.4-0.4 0.4-0.4 0.4-0.4 0.4-0.4 0.4-0.4 0.4-0.4 0.4-0.4 0.4-0.4 0.4-0.4 0.4-0.4 0.7-0.9 0.3-0.4 0.3-0.4 0.3-0.4 0.3-0.4 0.3-0.4 0.3-0.4 0.3-0.4 0.3-0.4 0.3-0.4 0.3-0.4 0.3-0.4 0.3-0.4 0.3-0.4 0.3-0.4 0.3-0.5 0.3-0.5 0.3-0.5 0.3-0.5 0.3-0.5 0.3-0.5 0.3-0.5 0.3-0.5 0.3-0.5 0.3-0.5 0.3-0.5 0.3-0.5 0.3-0.5 0.3-0.5 0.3-0.5 0.3-0.5 0.3-0.5 0.3-0.5 0.3-0.5 0.3-0.5 0.3-0.5 0.3-0.5 0.3-0.5 0.3-0.5 0.3-0.5 0.3-0.5 0.3-0.5 0.3-0.5 0.3-0.5 0.3-0.5 0.3-0.5 0.3-0.5 0.3-0.5 0.3-0.5 0.3-0.5 0.3-0.6 0.3-0.6 0.3-0.6 0.3-0.6 0.3-0.6 0.3-0.6 0.3-0.6 0.3-0.6 0.3-0.6 0.3-0.6 0.3-0.6 0.3-0.6 0.3-0.6 0.3-0.6 0.3-0.6 0.3-0.6 0.3-0.6 0.3-0.6 0.3-0.6 0.3-0.6 0.3-0.6 0.4-0.6 0.4-0.6 0.4-0.6 0.4-0.6 0.4-0.6 0.4-0.6 0.4-0.5 0.4-0.5 0.4-0.5 0.4-0.5 0.4-0.5 0.4-0.5 0.4-0.5 0.4-0.5 0.4-0.5 0.4-0.5 0.4-0.5 0.5-0.5 0.5-0.5 0.5-0.5 0.5-0.5 0.5-0.5 0.5-0.5 0.5-0.5 0.5-0.5 0.5-0.5 0.5-0.5 0.5-0.5 1-0.9 0.5-0.5 0.5-0.4 0.5-0.4 0.5-0.4 0.5-0.4 0.5-0.4 0.5-0.4 0.5-0.4 0.5-0.4 0.5-0.4 0.6-0.4 0.6-0.4 0.6-0.4 0.6-0.4 0.6-0.4 0.6-0.4 0.6-0.4 0.6-0.4 0.6-0.4 0.6-0.4 0.6-0.4 0.6-0.4 0.6-0.3 0.6-0.3 0.6-0.3 0.6-0.3 0.6-0.3 0.6-0.3 0.6-0.3 0.6-0.3 0.6-0.3 0.6-0.3 0.6-0.3 0.6-0.3 0.6-0.3 0.6-0.3 0.6-0.3 0.6-0.3 0.6-0.3 0.6-0.3 0.6-0.3 0.6-0.3 0.6-0.3 0.6-0.3 0.6-0.3 0.6-0.3 0.6-0.3 0.6-0.3 0.6-0.3 0.6-0.3 0.6-0.3 0.6-0.3 0.6-0.3 0.6-0.3 0.6-0.3 0.6-0.3 0.6-0.3 0.6-0.3 0.6-0.3 0.6-0.3 0.6-0.3 0.7-0.3 0.7-0.3 0.7-0.3 0.7-0.3 0.7-0.2 0.7-0.2 0.7-0.2 0.7-0.2 0.7-0.2 0.7-0.2 0.7-0.2 0.7-0.2 0.7-0.2 0.7-0.2 0.7-0.2 0.7-0.2 0.7-0.2 0.7-0.2 0.7-0.2 0.7-0.2 0.7-0.2 0.7-0.2 0.7-0.2 0.7-0.2 0.7-0.2 0.7-0.2 0.7-0.2 0.7-0.2 0.7-0.2 0.7-0.2 0.7-0.2 0.7-0.2 0.7-0.2 0.7-0.2 0.7-0.2 0.7-0.2 0.7-0.2 1.3-0.4 2.8-0.5 2.7 0.4 2.4 1.2 2 1.9 1.3 2.5 0.5 2.8-0.4 2.7-1.2 2.4-1.9 2-2.5 1.3-1.3 0.4-2.4-0.5-0.7 0.2-0.7 0.2-0.7 0.2-0.7 0.2-0.7 0.2-0.7 0.2-0.7 0.2-0.7 0.2-0.6 0.2-0.6 0.2-0.6 0.2-0.6 0.2-0.6 0.2-0.6 0.2-0.6 0.2-0.6 0.2-0.6 0.2-0.6 0.2-0.6 0.2-0.6 0.2-0.6 0.2-0.6 0.2-0.6 0.2-0.6 0.2-0.6 0.2-0.6 0.2-0.6 0.2-0.6 0.2-0.6 0.2-0.6 0.2-0.6 0.2-0.6 0.2-0.6 0.2-0.6 0.2-0.6 0.2-0.6 0.2-0.6 0.2-0.6 0.2-0.6 0.2-0.6 0.2-0.6 0.2-0.6 0.2-0.6 0.2-0.6 0.2-0.6 0.2-0.6 0.2-0.6 0.3-1 1.5-0.6 0.3-0.6 0.3-0.6 0.3-0.6 0.3-0.6 0.3-0.6 0.3-0.6 0.3-0.6 0.3-0.6 0.3-0.6 0.3-0.5 0.3-0.5 0.3-0.5 0.3-0.5 0.3-0.5 0.3-0.5 0.3-0.5 0.3-0.5 0.3-0.5 0.3-0.5 0.3-0.5 0.3-0.5 0.3-0.5 0.3-0.5 0.3-0.5 0.3-0.5 0.3-0.5 0.3-0.5 0.3-0.5 0.3-0.5 0.3-0.5 0.3-0.5 0.3-0.5 0.3-0.5 0.3-0.5 0.3-0.5 0.3-0.5 0.3-0.5 0.3-0.4 0.3-0.4 0.3-0.4 0.3-0.4 0.3-0.4 0.3-0.4 0.3-0.4 0.3-0.4 0.3-0.4 0.3-0.4-0.1-0.4 0.3-0.8 0.7-0.4 0.3-0.4 0.3-0.3 0.3-0.3 0.3-0.3 0.3-0.3 0.3-0.3 0.4-0.3 0.4-0.3 0.4-0.3 0.4-0.3 0.4-0.3 0.4-0.3 0.4-0.3 0.4-0.3 0.4-0.3 0.4-0.3 0.4-0.3 0.4-0.3 0.4-0.3 0.4-0.3 0.4-0.3 0.4-0.3 0.4-0.3 0.4-0.3 0.4-0.3 0.4-0.3 0.4-0.5 0.8-0.3 0.5-0.3 0.5-0.3 0.5-0.3 0.5-0.3 0.5-0.3 0.5-0.3 0.5-0.3 0.5-0.3 0.5-0.3 0.5-0.3 0.5-0.3 0.5-0.3 0.5-0.3 0.5-0.3 0.5-0.3 0.5-0.3 0.5-0.3 0.5-0.3 0.5-0.3 0.5-0.3 0.5-0.3 0.5-0.3 0.5-0.3 0.5-0.3 0.5-0.3 0.5-0.3 0.5-0.3 0.5-0.3 0.5-0.3 0.5-0.3 0.5-0.3 0.5-0.3 0.6-0.3 0.6-0.3 0.6-0.3 0.6-0.3 0.6-0.3 0.6-0.3 0.6-0.3 0.6-0.3 0.6-0.3 0.6-0.3 0.6-0.3 0.6-0.3 0.6-0.3 0.6-0.3 0.6-0.3 0.6-0.3 0.6-0.3 0.6-0.3 0.6-0.3 0.6-0.3 0.6-0.3 0.6-0.4 0.6-0.4 0.6-0.4 0.6-0.4 0.6-0.4 0.6-0.4 0.6-0.4 0.6-0.4 0.5-0.4 0.5-0.4 0.5-0.4 0.5-0.4 0.5-0.4 0.5-0.4 0.5-0.4 0.5-0.5 0.6-0.8 0.9-0.4 0.5-0.4 0.5-0.4 0.5-0.4 0.5-0.4 0.5-0.4 0.5-0.4 0.5-0.4 0.5-0.4 0.5-0.4 0.5-0.4 0.5-0.4 0.5-0.4 0.5-0.4 0.5-0.4 0.5-0.4 0.5-0.4 0.5-0.4 0.5-0.4 0.5-0.4 0.5-0.4 0.5-0.4 0.4-0.4 0.4-0.4 0.4-0.4 0.4-0.4 0.4-0.4 0.4-0.4 0.4-0.4 0.4-0.4 0.4-0.4 0.4-0.5 0.4-0.4 0.4-0.5 0.4-0.5 0.4-0.5 0.4-0.5 0.4-0.5 0.4-0.5 0.4-0.5 0.4-0.5 0.4-0.5 0.4-0.5 0.4-0.5 0.4-0.5 0.4-0.5 0.4-0.5 0.4-0.5 0.4-0.5 0.4-0.5 0.4-0.5 0.4-0.5 0.4-0.5 0.4-0.5 0.4-0.5 0.4-0.5 0.4-0.5 0.4-0.5 0.4-0.5 0.4-0.5 0.4-0.5 0.4-0.5 0.4 0.3 0.2-0.5 0.4-0.5 0.4-0.5 0.4-0.5 0.4-0.5 0.4-0.5 0.4-0.5 0.4-0.5 0.4-0.5 0.4-0.5 0.4-0.5 0.4-0.5 0.4-0.5 0.4-0.5 0.4-0.5 0.4-0.5 0.4-0.5 0.4-0.5 0.4-0.5 0.4-0.5 0.4-0.5 0.4-0.5 0.4-0.5 0.4-0.5 0.4-0.5 0.4-0.5 0.4-0.5 0.4-0.5 0.4-0.5 0.4-0.5 0.4-0.5 0.4-0.5 0.4-0.5 0.4-0.5 0.4 0.4 0.4z m77 156.5l-0.5 1.4-0.7 1.2-0.9 1.1-1 0.9-1.1 0.8-1.2 0.6-1.3 0.4-1.4 0.2h-1.4l-1.4-0.3-1.4-0.5-1.2-0.7-1.1-0.9-0.9-1-0.8-1.1-0.6-1.2-0.4-1.3-0.2-1.4v-1.4l0.3-1.4 0.1-0.4 0.1-0.4 0.1-0.4 0.1-0.4 0.1-0.4 0.1-0.4 0.1-0.4 0.1-0.4 0.1-0.4 0.1-0.4 0.1-0.4 0.1-0.4 0.1-0.4 0.1-0.4 0.1-0.4 0.1-0.4 0.1-0.4 0.1-0.4 0.1-0.4 0.1-0.4 0.1-0.4 0.1-0.4 0.1-0.4 0.1-0.4 0.1-0.4 0.1-0.4 0.1-0.4 0.1-0.4 0.1-0.4 0.1-0.4 0.1-0.4 0.1-0.4 0.1-0.4 0.1-0.4 0.1-0.4 0.1-0.4 0.1-0.4 0.1-0.4 0.1-0.4 0.1-0.4 0.1-0.4 0.1-0.4 0.1-0.4 0.1-0.4 0.1-0.4 0.1-0.4 0.1-0.4 0.1-0.4 0.1-0.4 0.1-0.4 0.1-0.4 0.1-0.4 0.1-0.4 0.1-0.4 0.1-0.4 0.1-0.4 0.1-0.5 0.1-0.5 0.1-0.5 0.1-0.5 0.1-0.5 0.1-0.5 0.1-0.5 0.1-0.5 0.1-0.5 0.1-0.5 0.1-0.5 0.1-0.5 0.1-0.5 0.1-0.5 0.1-0.5 0.1-0.5 0.1-0.5 0.1-0.5 0.1-0.5 0.1-0.5 0.1-0.5 0.1-0.5 0.1-0.5 0.1-0.5 0.1-0.5 0.1-0.5v-17.7l-0.1-0.6-0.1-0.6-0.1-0.6-0.1-0.6-0.1-0.7-0.1-0.7-0.1-0.7-0.1-0.7-0.1-0.7-0.1-0.7-0.1-0.7-0.1-0.7-0.1-0.7-0.1-0.7-0.1-0.7-0.1-0.7-0.1-0.7-0.1-0.7-0.1-0.7-0.1-0.7-0.1-0.7-0.1-0.7-0.1-0.7-0.1-0.7-0.1-0.7-0.1-0.7-0.1-0.8-0.1-0.8-0.1-0.8-0.1-0.8-0.1-0.8-0.1-0.8-0.1-0.8-0.1-0.8-0.1-0.8-0.1-0.8-0.1-0.8-0.1-0.8-0.1-0.8-0.1-0.8-0.1-0.8-0.1-0.8-0.1-0.8-0.1-0.8-0.1-0.8-0.1-0.8-0.1-0.8-0.1-0.8-0.1-0.8-0.1-0.8-0.1-0.8-0.1-0.8-0.1-0.8-0.1-0.8-0.1-0.8-0.1-0.8V610.2l0.1-0.8 0.1-0.8 0.1-0.8 0.1-0.8 0.1-0.8 0.1-0.8 0.1-0.8 0.1-0.8 0.1-0.8 0.1-0.8 0.1-0.7 0.3-1.4 0.2-0.7 0.2-0.7 0.2-0.7 0.2-0.7 0.2-0.7 0.2-0.7 0.2-0.7 0.2-0.7 0.2-0.7 0.2-0.7 0.2-0.7 0.2-0.7 0.2-0.6 0.2-0.6 0.2-0.6 0.2-0.6 0.2-0.6 0.3-0.6 0.3-0.6 0.3-0.6 0.3-0.6 0.3-0.6 0.3-0.6 0.3-0.6 0.3-0.6 0.3-0.6 0.3-0.6 0.3-0.6 0.3-0.6 0.3-0.6 0.3-0.6 0.3-0.6 0.3-0.6 0.3-0.6 0.3-0.6 0.3-0.6 0.3-0.6 0.3-0.6 0.3-0.6 0.3-0.6 0.3-0.6 0.3-0.6 0.3-0.6 0.4-0.6 0.4-0.5 0.4-0.5 0.4-0.5 0.4-0.5 0.4-0.5 0.4-0.5 0.4-0.5 0.4-0.5 0.4-0.5 0.4-0.5 0.4-0.5 0.4-0.5 0.4-0.5 0.4-0.5 0.4-0.5 0.4-0.5 0.4-0.5 0.4-0.5 0.4-0.5 0.4-0.5 0.4-0.5 0.4-0.5 0.4-0.5 0.4-0.5 0.4-0.5 0.4-0.5 0.4-0.5 0.4-0.5 0.4-0.5 0.4-0.5 0.4-0.5 0.4-0.5 0.4-0.5 0.4-0.5 0.4-0.5 0.4-0.5 0.4-0.5 0.4-0.5 0.4-0.5 0.4-0.5 0.4-0.5 0.4-0.5 0.4-0.5 0.4-0.5 0.4-0.5 0.4-0.5 0.4-0.5 0.4-0.5 0.4-0.5 0.4-0.5 0.4-0.5 0.4-0.5 0.4-0.5 0.4-0.5 0.8-0.9 2.2-1.8 2.6-1 2.7-0.2 2.7 0.7 2.4 1.5 1.8 2.2 1 2.6 0.2 2.7-0.7 2.7-1.5 2.4-0.8 0.9-0.4 0.5-0.4 0.5-0.4 0.5-0.4 0.5-0.4 0.5-0.4 0.5-0.4 0.5-0.4 0.5-0.4 0.5-0.4 0.5-0.4 0.5-0.4 0.5-0.4 0.5-0.4 0.5-0.4 0.5-0.4 0.5-0.4 0.5-0.4 0.5-0.4 0.5-0.4 0.5-0.4 0.5-0.4 0.5-0.4 0.5-0.4 0.5-0.4 0.5-0.4 0.5-0.4 0.5-0.4 0.5-0.4 0.5-0.4 0.5-0.4 0.5-0.4 0.5-0.4 0.5-0.4 0.5-0.4 0.5-0.4 0.5-0.4 0.5-0.3 0.5-0.3 0.5-0.3 0.5-0.3 0.5-0.3 0.5-0.3 0.5-0.3 0.5-0.3 0.5-0.3 0.5-0.3 0.5-0.3 0.5-0.3 0.5-0.3 0.5-0.3 0.5-0.3 0.5-0.3 0.5-0.3 0.5-0.3 0.5-0.3 0.5-0.3 0.5-0.3 0.5-0.3 0.5-0.3 0.5-0.3 0.5-0.3 0.5-0.3 0.5-0.3 0.5-0.3 0.5-0.3 0.5-0.3 0.5-0.3 0.5-0.2 0.5-0.2 0.5-0.2 0.5-0.2 0.5-0.2 0.5-0.2 0.5-0.2 0.5-0.2 0.5-0.2 0.5-0.2 0.5-0.2 0.5-0.2 0.5-0.2 0.5-0.2 0.5-0.2 0.5-0.2 0.5-0.2 0.5-0.2 0.5-0.2 0.5-0.2 0.5-0.2 0.5-0.2 0.5-0.2 0.5-0.2 0.5-0.1 0.5-0.1 0.5-0.1 0.5-0.1 0.5-0.1 0.5-0.1 0.5-0.2 1-0.1 0.5-0.1 0.5-0.1 0.5-0.1 0.5-0.1 0.5-0.1 0.5-0.1 0.5-0.1 0.6V624.1l0.1 0.7 0.1 0.7 0.1 0.7 0.1 0.7 0.1 0.7 0.1 0.7 0.1 0.7 0.1 0.7 0.1 0.7 0.1 0.7 0.1 0.7 0.1 0.7 0.1 0.7 0.1 0.7 0.1 0.7 0.1 0.7 0.1 0.7 0.1 0.7 0.1 0.7 0.1 0.7 0.1 0.7 0.1 0.7 0.1 0.7 0.1 0.7 0.1 0.7 0.1 0.7 0.1 0.7 0.1 0.7 0.1 0.7 0.1 0.7 0.1 0.7 0.1 0.7 0.1 0.7 0.1 0.7 0.1 0.7 0.1 0.7 0.1 0.7 0.1 0.7 0.1 0.7 0.1 0.7 0.1 0.7 0.1 0.7 0.1 0.7 0.1 0.7 0.1 0.7 0.1 0.7 0.1 0.7 0.1 0.7 0.1 0.7 0.1 0.7 0.1 0.7 0.1 0.7 0.1 0.7 0.1 0.7 0.1 0.7 0.1 0.7 0.1 0.7v17.5l-0.1 0.6-0.1 0.6-0.1 0.6-0.1 0.6-0.1 0.6-0.1 0.6-0.1 0.6-0.1 0.6-0.1 0.6-0.1 0.6-0.1 0.5-0.1 0.5-0.1 0.5-0.1 0.5-0.1 0.5-0.1 0.5-0.1 0.5-0.1 0.5-0.1 0.5-0.1 0.5-0.1 0.5-0.1 0.5-0.1 0.5-0.1 0.5-0.1 0.5h0.5l-0.1 0.5-0.1 0.5-0.1 0.5-0.1 0.5-0.1 0.5-0.1 0.5-0.1 0.5-0.1 0.5-0.1 0.5-0.1 0.5-0.1 0.5-0.1 0.5-0.1 0.5-0.1 0.5-0.1 0.5-0.1 0.5-0.1 0.5-0.1 0.5-0.1 0.5-0.1 0.5-0.1 0.5-0.1 0.5-0.1 0.5-0.1 0.5-0.1 0.5-0.1 0.5-0.1 0.5-0.1 0.5-0.1 0.5-0.1 0.5-0.1 0.5-0.1 0.5-0.1 0.5-0.1 0.5-0.1 0.4-0.1 0.4-0.1 0.4-0.3-0.2-0.1 0.4-0.1 0.4-0.1 0.4-0.1 0.4-0.1 0.4-0.1 0.4-0.1 0.4-0.1 0.4-0.1 0.4-0.1 0.4-0.1 0.4-0.1 0.4-0.1 0.4-0.1 0.4-0.1 0.4-0.1 0.4-0.1 0.4-0.1 0.4-0.1 0.4-0.1 0.4-0.1 0.4-0.5 1.1z m417.4-500.1l0.6-1.3 0.4-1.3 0.2-1.4V217l-0.2-1.3-0.4-1.3-0.6-1.2-0.8-1.1-1-1-1.2-0.8-1.3-0.6-1.3-0.4-1.4-0.2h-1.4l-1.3 0.2-1.3 0.4-1.2 0.6-1.1 0.8-1 1-0.8 1.2-0.3 0.4-0.3 0.4-0.3 0.4-0.3 0.4-0.3 0.4-0.3 0.4-0.3 0.4-0.3 0.4-0.3 0.4-0.3 0.4-0.3 0.4-0.3 0.4-0.3 0.4-0.3 0.4-0.3 0.4-0.3 0.4-0.3 0.4-0.3 0.4-0.3 0.4-0.3 0.4-0.3 0.4-0.3 0.4-0.3 0.4-0.3 0.4-0.3 0.4-0.3 0.4-0.3 0.4-0.3 0.4-0.3 0.4-0.3 0.4-0.3 0.4-0.3 0.4-0.3 0.4-0.3 0.4-0.3 0.4-0.3 0.5-0.3 0.5-0.3 0.5-0.3 0.5-0.3 0.5-0.3 0.5-0.3 0.5-0.2 0.5-0.2 0.5-0.2 0.5-0.2 0.5-0.2 0.5-0.2 0.5-0.2 0.5-0.2 0.5-0.2 0.5-0.2 0.5-0.2 0.5-0.2 0.5-0.2 0.5-0.2 0.5-0.2 0.5-0.2 0.5-0.2 0.5-0.2 0.5-0.2 0.5-0.2 0.5-0.2 0.5-0.2 0.5-0.2 0.5-0.2 0.5-0.2 0.5-0.2 0.5-0.2 0.5-0.2 0.5-0.2 0.5-0.2 0.5-0.2 0.5-0.2 0.5-0.2 0.5-0.2 0.5-0.2 0.5-0.2 0.5-0.2 0.5-0.2 0.5-0.2 0.5-0.2 0.5-0.2 0.5-0.2 0.5-0.2 0.5-0.2 0.6-0.2 0.6-0.2 0.6-0.2 0.6-0.2 0.6-0.2 0.6-0.2 0.6-0.2 0.6-0.2 0.6-0.2 0.6-0.2 0.6-0.2 0.6-0.2 0.6-0.4 1.2-0.2 0.7-0.2 0.7-0.2 0.7-0.2 0.7-0.2 0.7-0.2 0.7-0.2 0.7-0.2 0.7-0.2 0.7-0.2 0.7-0.2 0.7-0.2 0.7-0.2 0.7-0.2 0.7-0.2 0.7-0.2 0.7-0.2 0.7-0.2 0.7-0.1 0.7-0.1 0.7-0.1 0.7-0.1 0.7-0.1 0.7-0.1 0.7-0.1 0.7-0.1 0.7-0.1 0.7-0.1 0.7-0.1 0.7-0.1 0.7-0.1 0.7-0.1 0.7-0.1 0.7-0.1 0.7-0.1 0.7-0.1 0.7-0.1 0.7-0.1 0.7-0.1 0.7-0.1 0.7-0.1 0.7-0.1 0.7-0.1 0.7-0.1 0.7-0.1 0.7-0.1 0.7-0.1 0.7-0.1 0.7-0.1 0.7-0.1 0.7-0.1 0.7-0.1 0.7-0.1 0.7-0.1 0.7-0.1 0.7-0.1 0.7-0.1 0.7-0.1 0.7-0.1 0.7-0.1 0.7-0.1 0.7-0.1 0.7-0.1 0.7-0.1 0.7-0.1 0.7-0.1 0.7-0.1 0.7-1 0.8-0.1 0.6-0.1 0.6-0.1 0.6-0.1 0.6-0.2 0.6-0.2 0.6-0.2 0.6-0.2 0.6-0.2 0.6-0.2 0.6-0.2 0.6-0.2 0.6-0.2 0.6-0.2 0.6-0.2 0.5-0.2 0.5-0.2 0.5-0.2 0.5-0.2 0.5-0.2 0.5-0.2 0.5-0.2 0.5-0.2 0.5-0.2 0.5-0.2 0.5-0.2 0.4-0.2 0.4-0.2 0.4-0.2 0.4-0.2 0.4-0.5 0.8-0.2 0.4-0.2 0.4-0.2 0.4-0.2 0.4-0.3 0.4-0.3 0.4-0.3 0.4-0.3 0.4-0.3 0.4-0.3 0.4-0.3 0.4-0.3 0.4-0.3 0.4-0.3 0.4-0.3 0.4-0.3 0.4-0.3 0.4-0.3 0.4-0.3 0.4-0.3 0.4-0.3 0.4-0.3 0.4-0.3 0.3-0.3 0.3-0.3 0.3-0.3 0.3-0.3 0.3-0.3 0.3-0.3 0.3-0.3 0.3-0.3 0.3-0.3 0.3-0.3 0.3-0.3 0.3-0.3 0.3-0.3 0.3-0.3 0.3-0.3 0.3-0.3 0.3-0.4 0.3-0.4 0.3-0.4 0.3-0.4 0.3-0.4 0.3-0.4 0.3-0.4 0.3-0.4 0.3-0.4 0.3-0.4 0.3-0.4 0.3-0.4 0.3-0.4 0.3-0.4 0.3-0.4 0.3-0.4 0.3-0.4 0.3-0.4 0.3-0.4 0.3-0.4 0.3-0.4 0.3-0.4 0.3-0.4 0.3-0.4 0.3-0.4 0.3-0.4 0.3-0.4 0.3-0.4 0.3-0.4 0.3-0.4 0.3-0.4 0.3-0.4 0.3-0.4 0.3-0.4 0.3-0.4 0.3-0.4 0.3-0.4 0.3-0.4 0.3-0.4 0.3-0.4 0.3-0.4 0.3-0.4 0.3-0.4 0.3-0.4 0.3-0.4 0.3-0.4 0.3-0.4 0.3-0.4 0.3-0.5 0.3-0.5 0.3-0.5 0.3-0.5 0.3-0.5 0.3-0.5 0.3-0.5 0.3-0.5 0.3-0.5 0.3-0.5 0.3-0.5 0.3-0.9 0.5-2.2 1.8-1.5 2.3-0.7 2.6 0.1 2.7 1 2.7 1.8 2.2 2.3 1.5 2.6 0.7 2.7-0.1 2.7-1 0.9-0.5 0.5-0.3 0.5-0.3 0.5-0.3 0.5-0.3 0.5-0.3 0.5-0.3 0.5-0.3 0.5-0.3 0.5-0.3 0.5-0.3 0.5-0.3 0.5-0.3 0.5-0.3 0.5-0.3 0.5-0.3 0.5-0.3 0.5-0.3 0.5-0.3 0.5-0.3 0.5-0.3 0.5-0.3 0.5-0.3 0.5-0.3 0.5-0.3 0.5-0.3 0.5-0.3 0.5-0.3 0.5-0.3 0.5-0.3 0.5-0.3 0.5-0.3 0.5-0.3 0.5-0.3 0.5-0.3 0.5-0.3 0.5-0.3 0.5-0.3 0.5-0.3 0.5-0.3 0.5-0.3 0.5-0.3 0.5-0.3 0.5-0.3 0.5-0.3 0.5-0.3 0.5-0.3 0.5-0.3 0.5-0.3 0.5-0.4 0.5-0.4 0.5-0.4 0.5-0.4 0.5-0.4 0.5-0.4 0.4-0.4 0.4-0.4 0.4-0.4 0.4-0.4 0.4-0.4 0.4-0.4 0.4-0.4 0.4-0.4 0.4-0.4 0.4-0.4 0.4-0.4 0.4-0.4 0.4-0.4 0.4-0.4 0.4-0.4 0.4-0.4 0.4-0.4 0.4-0.4 0.4-0.4 0.4-0.4 0.4-0.5 0.4-0.5 0.4-0.5 0.4-0.5 0.4-0.5 0.4-0.5 0.4-0.5 0.4-0.5 0.4-0.5 0.4-0.5 0.4-0.5 0.4-0.5 0.4-0.5 0.4-0.5 0.4-0.5 0.4-0.5 0.4-0.5 0.3-0.5 0.3-0.5 0.3-0.5 0.3-0.6 0.3-0.6 0.3-0.6 0.3-0.6 0.6-1.2 0.3-0.6 0.3-0.6 0.3-0.6 0.3-0.6 0.3-0.7 0.3-0.7 0.3-0.7 0.3-0.7 0.3-0.7 0.3-0.7 0.2-0.7 0.2-0.7 0.2-0.7 0.2-0.7 0.2-0.7 0.2-0.7 0.2-0.7 0.2-0.7 0.2-0.7 0.2-0.7 0.2-0.7 0.2-0.7 0.2-0.7 0.2-0.7 0.2-0.7 0.2-0.7 0.2-0.7 0.2-0.7 0.2-0.7 0.2-0.7 0.2-0.7 0.2-0.7 0.2-0.7 0.1-0.7 0.1-0.7 0.1-0.7 0.1-0.7 0.1-0.7 0.1-0.7 0.1-0.7 0.1-0.7 0.1-0.7 0.1-0.7 0.1-0.7 0.1-0.7 0.1-0.7 0.1-0.7 0.1-0.7 0.1-0.7 0.1-0.7 0.1-0.7 0.1-0.7 0.1-0.7 0.1-0.7 0.1-0.7 0.1-0.7 0.1-0.7 0.1-0.7 0.1-0.7 0.1-0.7 0.1-0.7 0.1-0.7 0.1-0.7 0.1-0.7 0.1-0.7 0.1-0.7 0.1-0.7 0.1-0.7 0.1-0.7 0.1-0.7 0.1-0.7 0.1-0.7 0.1-0.7 0.1-0.7 0.1-0.7 0.1-0.7 0.1-0.6 0.1-0.6 0.1-0.6 0.1-0.6 0.1-0.6 0.1-0.6 0.1-0.6 0.1-0.6 0.1-0.6 0.1-0.6 0.1-0.6 0.1-0.6 0.1-0.6 0.1-0.6 0.2-0.5 0.2-0.5 0.2-0.5 0.2-0.5 0.2-0.5 0.2-0.5 0.2-0.5 0.2-0.4 0.4-1.1 0.2-0.5 0.2-0.5 0.2-0.5 0.2-0.5 0.2-0.5 0.2-0.5 0.2-0.5 0.2-0.5 0.2-0.5 0.2-0.5 0.2-0.5 0.2-0.5 0.2-0.5 0.2-0.5 0.2-0.5 0.2-0.5 0.2-0.5 0.2-0.5 0.2-0.5 0.2-0.5 0.2-0.5 0.2-0.5 0.2-0.5 0.2-0.5 0.2-0.5 0.2-0.5 0.2-0.5 0.2-0.5 0.2-0.5 0.2-0.5 0.2-0.5 0.2-0.5 0.2-0.5 0.2-0.5 0.2-0.5 0.2-0.5 0.2-0.5 0.2-0.5 0.2-0.4 0.2-0.4 0.2-0.4 0.2-0.4 0.2-0.4 0.2-0.4 0.2-0.4 0.2-0.4 0.2-0.4 0.2-0.4 0.2-0.4 0.2-0.4 0.2-0.4 0.2-0.4 0.2-0.4 0.2-0.4 0.2-0.4 0.2-0.4 0.2-0.4 0.2-0.4 0.2-0.4 0.2-0.4 0.2-0.4 0.2-0.4 0.2-0.4 0.2-0.4 0.2-0.4 0.2-0.4 0.2-0.4 0.2-0.4 0.2-0.4 0.2-0.4 0.2-0.4 0.2-0.4 0.2-0.4 0.2-0.4 0.2-0.4 0.2-0.4 0.2-0.4 0.2-0.4 0.2-0.4 0.2-0.4 0.2-0.4 0.2-0.4 0.2-0.4 0.2-0.4 0.2-0.4 0.2-0.4 0.2-0.4 0.2-0.4 0.2-0.4 0.2-0.4 0.2-0.4 0.3-0.4 0.2-0.4 0.3-0.4 0.3-0.4 0.3-0.4 0.3-0.4 2.4-3.1zM782.5 566l1.2 0.8 1.3 0.6 1.3 0.4 1.4 0.2h1.4l1.3-0.2 1.3-0.4 1.2-0.6 1.1-0.8 1-1 0.8-1.2 0.6-1.3 0.4-1.3 0.2-1.4v-1.4l-0.2-1.3-0.4-1.3-0.6-1.2-0.8-1.1-1-1-0.5-0.4-0.5-0.4-0.5-0.4-0.5-0.4-0.5-0.4-0.5-0.4-0.5-0.4-0.5-0.4-0.5-0.4-0.5-0.4-0.5-0.4-0.5-0.4-0.5-0.4-0.5-0.4-0.5-0.4-0.5-0.4-0.5-0.4-0.5-0.4-0.5-0.4-0.5-0.4-0.5-0.4-0.5-0.4-0.5-0.4-0.5-0.4-0.5-0.4-0.5-0.4-0.5-0.4-0.5-0.4-0.5-0.4-0.5-0.4-0.5-0.4-0.5-0.4-0.5-0.4-0.5-0.4-0.5-0.4-0.5-0.4-0.5-0.4-0.5-0.4-0.5-0.4-0.5-0.4-0.5-0.4-0.5-0.4-0.5-0.4-0.4-0.4-0.4-0.4-0.4-0.4-0.4-0.4-0.4-0.4-0.4-0.4-0.4-0.4-0.4-0.4-0.4-0.4-0.4-0.4-0.4-0.4-0.4-0.4-0.4-0.4-0.4-0.4-0.4-0.4-0.4-0.4-0.4-0.4-0.4-0.4-0.4-0.4-0.4-0.4-0.4-0.4-0.4-0.4-0.4-0.4-0.4-0.4-0.4-0.4-0.4-0.4-0.4-0.4-0.4-0.4-0.4-0.4-0.4-0.4-0.4-0.4-0.4-0.4-0.4-0.4-0.4-0.4-0.4-0.4-0.4-0.4-0.4-0.4-0.4-0.4-0.4-0.4-0.4-0.4-0.4-0.4-0.4-0.4-0.4-0.4-0.4-0.4-0.4-0.4-0.4-0.4-0.4-0.4-0.4-0.4-0.4-0.4-0.4-0.4-0.4-0.4-0.4-0.4-0.4-0.4-0.4-0.4-0.4-0.4-0.7-0.9-0.3-0.4-0.3-0.4-0.3-0.4-0.3-0.4-0.3-0.4-0.3-0.4-0.3-0.4-0.3-0.4-0.3-0.4-0.3-0.4-0.3-0.4-0.3-0.4-0.3-0.4-0.3-0.4-0.3-0.5-0.3-0.5-0.3-0.5-0.3-0.5-0.3-0.5-0.3-0.5-0.3-0.5-0.3-0.5-0.3-0.5-0.3-0.5-0.3-0.5-0.3-0.5-0.3-0.5-0.3-0.5-0.3-0.5-0.3-0.5-0.3-0.5-0.3-0.5-0.3-0.5-0.3-0.5-0.3-0.5-0.3-0.5-0.3-0.5-0.3-0.5-0.3-0.5-0.3-0.5-0.3-0.5 0.5-1.3-0.3-0.5-0.3-0.5-0.3-0.5-0.3-0.5-0.3-0.5-0.3-0.6-0.3-0.6-0.3-0.6-0.3-0.6-0.3-0.6-0.3-0.6-0.3-0.6-0.3-0.6-0.3-0.6-0.3-0.6-0.3-0.6-0.3-0.6-0.3-0.6-0.3-0.6-0.3-0.6-0.3-0.6-0.3-0.6-0.3-0.6-0.3-0.6-0.3-0.6-0.3-0.6-0.3-0.6-0.3-0.6-0.4-0.6-0.4-0.6-0.4-0.6-0.4-0.6-0.4-0.6-0.4-0.6-0.4-0.5-0.4-0.5-0.4-0.5-0.4-0.5-0.4-0.5-0.4-0.5-0.4-0.5-0.4-0.5-0.4-0.5-0.4-0.5-0.4-0.5-0.5-0.5-0.5-0.5-0.5-0.5-0.5-0.5-0.5-0.5-0.5-0.5-0.5-0.5-0.5-0.5-0.5-0.5-0.5-0.5-0.5-0.5-1-0.9-0.6-0.5-0.5-0.4-0.5-0.4-0.7 0.1-0.5-0.4-0.5-0.4-0.5-0.4-0.5-0.4-0.5-0.4-0.6-0.4-0.6-0.4-0.6-0.4-0.6-0.4-0.6-0.4-0.6-0.4-0.6-0.4-0.6-0.4-0.6-0.4-0.6-0.4-0.6-0.4-0.6-0.4-0.6-0.4-0.6-0.3-0.6-0.3-0.6-0.3-0.6-0.3-0.6-0.3-0.6-0.3-0.6-0.3-0.6-0.3-0.6-0.3-0.6-0.3-0.6-0.3-0.6-0.3-0.6-0.3-0.6-0.3-0.6-0.3-0.6-0.3-0.6-0.3-0.6-0.3-0.6-0.3-0.6-0.3-0.6-0.3-0.6-0.3-0.6-0.3-0.6-0.3-0.6-0.3-0.6-0.3-0.6-0.3-0.6-0.3-0.6-0.3-0.6-0.3-0.6-0.3-0.6-0.3-0.6-0.3-0.6-0.3-0.6-0.3-0.6-0.3-0.7-0.3-0.7-0.3-0.7-0.3-0.7-0.3-0.7-0.3-0.7-0.3-0.7-0.2-0.7-0.2-0.7-0.2-0.7-0.2-0.7-0.2-0.7-0.2-0.7-0.2-0.7-0.2-0.7-0.2-0.7-0.2-0.7-0.2-0.7-0.2-0.7-0.2-0.7-0.2-0.7-0.2-0.4-0.2-0.7-0.2-0.7-0.2-0.7-0.2-0.7-0.2-0.7-0.2-0.7-0.2-0.7-0.2-0.7-0.2-0.7-0.2-0.7-0.2-0.7-0.2-0.7-0.2-0.7-0.2-0.7-0.2-0.7-0.2-0.7-0.2-0.7-0.2-0.7-0.2-1.3-0.4-2.8-0.5-2.7 0.4-2.4 1.2-2 1.9-1.3 2.5-0.5 2.8 0.4 2.7 1.2 2.4 1.9 2 2.5 1.3 1.3 0.4 0.7 0.2 0.7 0.2 0.7 0.2 0.7 0.2 0.7 0.2 0.7 0.2 0.7 0.2 0.7 0.2 0.7 0.2 0.7 0.2 0.7 0.2 0.7 0.2 0.6 0.2 0.7 0.2 0.6 0.2 0.6 0.2 0.6 0.2 0.6 0.2 0.6 0.2 0.6 0.2 0.6 0.2 0.6 0.2 0.6 0.2 0.6 0.2 0.6 0.2 0.6 0.2 0.6 0.2 0.6 0.2 0.6 0.2 0.6 0.2 0.6 0.2 0.6 0.2 0.6 0.2 0.6 0.2 0.6 0.2 0.6 0.2 0.6 0.2 0.6 0.2 0.6 0.2 0.6 0.2 0.6 0.2 0.6 0.2 0.6 0.2 0.6 0.2 0.6 0.2 0.6 0.2 0.6 0.2 0.6 0.2 0.6 0.3 0.6 0.3 0.6 0.3 0.6 0.3 0.6 0.3 0.6 0.3 0.6 0.3 0.6 0.3 0.6 0.3 0.6 0.3 0.6 0.3 0.6 0.3 0.5 0.3 0.5 0.3 0.5 0.3 0.5 0.3 0.5 0.3 0.5 0.3 0.5 0.3 0.5 0.3 0.5 0.3 0.5 0.3 0.5 0.3 0.5 0.3 0.5 0.3 0.5 0.3 0.5 0.3 0.5 0.3 0.5 0.3 0.5 0.3 0.5 0.3 0.5 0.3 0.5 0.3 0.5 0.3 0.5 0.3 0.5 0.3 0.5 0.3 0.5 0.3 0.5 0.3 0.4 0.3 0.4 0.3 0.4 0.3 0.4 0.3 0.4 0.3 0.4 0.3 0.4 0.3 0.4 0.3 0.4 0.3 0.4 0.3 0.4 0.3 0.8 0.7 0.4 0.3 0.4 0.3 0.4 0.3 0.3 0.3 0.3 0.3 0.3 0.3 0.3 0.4 0.3 0.4 0.3 0.4 0.3 0.4 0.3 0.4 0.3 0.4 0.3 0.4 0.3 0.4 0.3 0.4 0.3 0.4 0.3 0.4 0.3 0.4 0.3 0.4 0.3 0.4 0.3 0.4 0.3 0.4 0.3 0.4 0.3 0.4 0.3 0.4 0.3 0.4 0.3 0.4 0.3 0.5 0.3 0.5 0.3 0.5 0.3 0.5 0.3 0.5 0.3 0.5 0.3 0.5 0.3 0.5 0.3 0.5 0.3 0.5 0.3 0.5 0.3 0.5 0.3 0.5 0.3 0.5 0.3 0.5 0.3 0.5 0.3 0.5 0.3 0.5 0.3 0.5 0.3 0.5 0.3 0.5 0.3 0.5 0.3 0.5 0.3 0.5 0.3 0.5 0.3 0.5 0.3 0.5 0.3 0.5 0.3 0.5 0.3 0.5 0.3 0.5 0.3 0.5 0.3 0.5 0.3 0.6 0.3 0.6 0.3 0.6 0.3 0.6 0.3 0.6 0.3 0.6 0.3 0.6 0.3 0.6 0.3 0.6 0.3 0.6 0.3 0.6 0.3 0.6 0.3 0.6 0.3 0.6 0.3 0.6 0.3 0.6 0.3 0.6 0.3 0.6 0.3 0.6 0.3 0.6 0.3 0.6 0.4 0.6 0.4 0.6 0.4 0.6 0.4 0.6 0.4 0.6 0.4 0.6 0.4 0.6 0.4 0.6 0.4 0.5 0.4 0.5 0.4 0.5 0.4 0.5 0.4 0.5 0.4 0.5 0.4 0.5 0.4 0.5 0.5 0.6 0.8 0.9 0.4 0.5 0.4 0.5 0.4 0.5 0.4 0.5 0.4 0.5 0.4 0.5 0.4 0.5 0.4 0.5 0.4 0.5 0.4 0.5 0.4 0.5 0.4 0.5 0.4 0.5 0.4 0.5 0.4 0.5 0.4 0.5 0.4 0.5 0.4 0.5 0.4 0.5 0.4 0.5 0.4 0.4 0.4 0.4 0.4 0.4 0.4 0.4 0.4 0.4 0.4 0.4 0.4 0.4 0.4 0.4 0.5 0.4 0.4 0.4 0.5 0.4 0.5 0.4 0.5 0.4 0.5 0.4 0.5 0.4 0.5 0.4 0.5 0.4 0.5 0.4 0.5 0.4 0.5 0.4 0.5 0.4 0.5 0.4 0.5 0.4 0.5 0.4 0.5 0.4 0.5 0.4 0.5 0.4 0.5 0.4 0.5 0.4 0.5 0.4 0.5 0.4 0.5 0.4 0.5 0.4 0.5 0.4 0.5 0.4 0.5 0.4 0.5 0.4 0.5 0.4 0.5 0.4 0.5 0.4 0.5 0.4 0.5 0.4 0.5 0.4 0.5 0.4 0.5 0.4 0.5 0.4 0.5 0.4 0.5 0.4 0.5 0.4 0.5 0.4 0.5 0.4 0.5 0.4 0.5 0.4 0.5 0.4 0.5 0.4 0.5 0.4 0.5 0.4 0.5 0.4 0.5 0.4 0.5 0.4 0.5 0.4 0.5 0.4 0.5 0.4 0.5 0.4 0.5 0.4 0.5 0.4 0.5 0.4 0.5 0.4 0.5 0.4 0.5 0.4 0.5 0.4 0.5 0.4 0.5 0.4 0.5 0.4 0.5 0.4 0.5 0.4 0.5 0.4-0.1 1.2z m-77.6 156.5l0.5 1.4 0.7 1.2 0.8 1.1 1 0.9 1.1 0.8 1.2 0.6 1.3 0.4 1.3 0.2h1.4l1.4-0.3 1.3-0.5 1.2-0.7 1.1-0.9 0.9-1 0.7-1.1 0.6-1.2 0.4-1.3 0.2-1.4v-1.4l-0.3-1.4-0.1-0.4-0.1-0.4-0.1-0.4-0.1-0.4-0.1-0.4-0.1-0.4-0.1-0.4-0.1-0.4-0.1-0.4-0.1-0.4-0.1-0.4-0.1-0.4-0.1-0.4-0.1-0.4-0.1-0.4-0.1-0.4-0.1-0.4-0.1-0.4-0.1-0.4-0.1-0.4-0.1-0.4-0.1-0.4-0.1-0.4-0.1-0.4-0.1-0.4-0.1-0.4-0.1-0.4-0.1-0.4-0.1-0.4-0.1-0.4-0.1-0.4-0.1-0.4-0.1-0.4-0.1-0.4-0.1-0.4-0.1-0.4-0.1-0.4-0.1-0.4-0.1-0.4-0.1-0.4-0.1-0.4-0.1-0.4-0.1-0.4-0.1-0.4-0.1-0.4-0.1-0.4-0.1-0.4-0.1-0.4-0.1-0.4-0.1-0.4-0.1-0.4-0.1-0.4-0.1-0.4-0.1-0.4-0.1-0.4-0.1-0.4-0.1-0.5-0.1-0.5-0.1-0.5-0.1-0.5-0.1-0.5-0.1-0.5-0.1-0.5-0.1-0.5-0.1-0.5-0.1-0.5-0.1-0.5-0.1-0.5-0.1-0.5-0.1-0.5-0.1-0.5-0.1-0.5-0.1-0.5-0.1-0.5-0.1-0.5-0.1-0.5-0.1-0.5-0.1-0.5-0.1-0.5-0.1-0.5-0.1-0.5-0.1-0.5v-17.7l0.1-0.6 0.1-0.6 0.1-0.6 0.1-0.6 0.1-0.7 0.1-0.7 0.1-0.7 0.1-0.7 0.1-0.7 0.1-0.7 0.1-0.7 0.1-0.7 0.1-0.7 0.1-0.7 0.1-0.7 0.1-0.7 0.1-0.7 0.1-0.7 0.1-0.7 0.1-0.7 0.1-0.7 0.1-0.7 0.1-0.7 0.1-0.7 0.1-0.7 0.1-0.7 0.1-0.8 0.1-0.8 0.1-0.8 0.1-0.8 0.1-0.8 0.1-0.8 0.1-0.8 0.1-0.8 0.1-0.8 0.1-0.8 0.1-0.8 0.1-0.8 0.1-0.8 0.1-0.8 0.1-0.8 0.1-0.8 0.1-0.8 0.1-0.8 0.1-0.8 0.1-0.8 0.1-0.8 0.1-0.8 0.1-0.8 0.1-0.8 0.1-0.8 0.1-0.8 0.1-0.8 0.1-0.8 0.1-0.8 0.1-0.8V610.2l-0.1-0.8-0.1-0.8-0.1-0.8-0.1-0.8-0.1-0.8-0.1-0.8-0.1-0.8-0.1-0.8-0.1-0.8-0.1-0.8-0.1-0.7-0.3-1.4-0.2-0.7-0.2-0.7-0.2-0.7-0.2-0.7-0.2-0.7-0.2-0.7-0.2-0.7-0.2-0.7-0.2-0.7-0.2-0.7-0.2-0.7-0.2-0.6-0.2-0.6-0.2-0.6-0.2-0.6-0.2-0.6-0.2-0.6-0.2-0.6-0.3-0.6-0.3-0.6-0.3-0.6-0.3-0.6-0.3-0.6-0.3-0.6-0.3-0.6-0.3-0.6-0.3-0.6-0.3-0.6-0.3-0.6-0.3-0.6-0.3-0.6-0.3-0.6-0.3-0.6-0.3-0.6-0.3-0.6-0.3-0.6-0.3-0.6-0.3-0.6-0.3-0.6-0.3-0.6-0.3-0.6-0.3-0.6-0.3-0.6-0.3-0.6-0.3-0.5-0.3-0.5-0.4-0.5-0.4-0.5-0.4-0.5-0.4-0.5-0.4-0.5-0.4-0.5-0.4-0.5-0.4-0.5-0.4-0.5-0.4-0.5-0.4-0.5-0.4-0.5-0.4-0.5-0.4-0.5-0.4-0.5-0.4-0.5-0.4-0.5-0.4-0.5-0.4-0.5-0.4-0.5-0.4-0.5-0.4-0.5-0.4-0.5-0.4-0.5-0.4-0.5-0.4-0.5-0.4-0.5-0.4-0.5-0.4-0.5-0.4-0.5-0.4-0.5-0.4-0.5-0.4-0.5-0.4-0.5-0.4-0.5-0.4-0.5-0.4-0.5-0.4-0.5-0.4-0.5-0.4-0.5-0.4-0.5-0.4-0.5-0.4-0.5-0.4-0.5-0.4-0.5-0.4-0.5-0.4-0.5-0.4-0.5-0.4-0.5-0.4-0.5-0.4-0.5-0.4-0.5-0.8-0.9-2.2-1.8-2.5-1-2.7-0.2-2.6 0.7-2.4 1.5-1.8 2.2-1 2.6-0.2 2.7 0.7 2.7 1.5 2.4 0.8 0.9 0.4 0.5 0.4 0.5 0.4 0.5 0.4 0.5 0.4 0.5 0.4 0.5 0.4 0.5 0.4 0.5 0.4 0.5 0.4 0.5 0.4 0.5 0.4 0.5 0.4 0.5 0.4 0.5 0.4 0.5 0.4 0.5 0.4 0.5 0.4 0.5 0.4 0.5 0.4 0.5 0.4 0.5 0.4 0.5 0.4 0.5 0.4 0.5 0.4 0.5 0.4 0.5 0.4 0.5 0.4 0.5 0.4 0.5 0.4 0.5 0.4 0.5 0.4 0.5 0.4 0.5 0.4 0.5 0.3 0.5 0.3 0.5 0.3 0.5 0.3 0.5 0.3 0.5 0.3 0.5 0.3 0.5 0.3 0.5 0.3 0.5 0.3 0.5 0.3 0.5 0.3 0.5 0.3 0.5 0.3 0.5 0.3 0.5 0.3 0.5 0.3 0.5 0.3 0.5 0.3 0.5 0.3 0.5 0.3 0.5 0.3 0.5 0.3 0.5 0.3 0.5 0.3 0.5 0.3 0.5 0.3 0.5 0.3 0.5 0.3 0.5 0.3 0.5 0.3 0.5 0.3 0.5 0.2 0.5 0.2 0.5 0.2 0.5 0.2 0.5 0.2 0.5 0.2 0.5 0.2 0.5 0.2 0.5 0.2 0.5 0.2 0.5 0.2 0.5 0.2 0.5 0.2 0.5 0.2 0.5 0.2 0.5 0.2 0.5 0.2 0.5 0.2 0.5 0.2 0.5 0.2 0.5 0.2 0.5 0.2 0.5 0.2 0.5 0.2 0.5 0.2 0.5 0.1 0.5 0.1 0.5 0.1 0.5 0.1 0.5 0.1 0.5 0.1 0.5 0.1 0.5 0.2 1 0.1 0.5 0.1 0.5 0.1 0.5 0.1 0.5 0.1 0.5 0.1 0.5 0.1 0.5 0.1 0.6V624.9l-0.1 0.7-0.1 0.7-0.1 0.7-0.1 0.7-0.1 0.7-0.1 0.7-0.1 0.7-0.1 0.7-0.1 0.7-0.1 0.7-0.1 0.7-0.1 0.7-0.1 0.7-0.1 0.7-0.1 0.7-0.1 0.7-0.1 0.7-0.1 0.7-0.1 0.7-0.1 0.7-0.1 0.7-0.1 0.7-0.1 0.7-0.1 0.7-0.1 0.7-0.1 0.7V642l-0.1 0.7-0.1 0.7-0.1 0.7-0.1 0.7-0.1 0.7-0.1 0.7-0.1 0.7-0.1 0.7-0.1 0.7-0.1 0.7-0.1 0.7-0.1 0.7-0.1 0.7-0.1 0.7-0.1 0.7-0.1 0.7-0.1 0.7-0.1 0.7-0.1 0.7-0.1 0.7-0.1 0.7-0.1 0.7-0.1 0.7-0.1 0.7-0.1 0.7-0.1 0.7-0.1 0.7-0.1 0.7-0.1 0.7V681l0.1 0.6 0.1 0.6 0.1 0.6 0.1 0.6 0.1 0.6 0.1 0.6 0.1 0.6 0.1 0.6 0.1 0.5 0.1 0.5 0.1 0.5 0.1 0.5 0.1 0.5 0.1 0.5 0.1 0.5 0.1 0.5 0.1 0.5 0.1 0.5 0.1 0.5 0.1 0.5 0.1 0.5 0.1 0.5 0.1 0.5 0.1 0.5 0.1 0.5 0.1 0.5 0.1 0.5 0.1 0.5 0.1 0.5 0.1 0.5 0.1 0.5 0.1 0.5 0.1 0.5 0.1 0.5 0.1 0.5 0.1 0.5 0.1 0.5 0.1 0.5 0.1 0.5 0.1 0.5 0.1 0.5 0.1 0.5 0.1 0.5 0.1 0.5 0.1 0.5 0.1 0.5 0.1 0.5 0.1 0.5 0.1 0.5 0.1 0.5 0.1 0.5 0.1 0.5 0.1 0.5 0.1 0.5 0.1 0.5 0.1 0.5 0.1 0.5 0.1 0.5 0.1 0.4 0.1 0.4 0.1 0.4 0.1 0.4 0.1 0.4 0.1 0.4 0.1 0.4 0.1 0.4 0.1 0.4 0.1 0.4 0.1 0.4 0.1 0.4 0.1 0.4 0.1 0.4 0.1 0.4 0.1 0.4 0.1 0.4 0.1 0.4 0.1 0.4 0.1 0.4 0.1 0.4 0.1 0.4 0.1 0.4 0.1 0.4 0.1 0.4 0.5 1.7zM568.3 116l-0.8-1.2-0.6-1.3-0.4-1.3-0.1-1.4 0.1-1.4 0.3-1.3 0.5-1.3 0.7-1.2 0.9-1.1 1.1-1 1.2-0.8 1.3-0.6 1.3-0.4 1.4-0.1 1.4 0.1 1.3 0.3 1.3 0.5 1.2 0.7 1.1 0.9 1 1.1 0.4 0.5 0.4 0.5 0.4 0.5 0.4 0.5 0.4 0.5 0.4 0.5 0.4 0.5 0.4 0.5 0.4 0.5 0.4 0.5 0.4 0.5 0.4 0.5 0.4 0.5 0.4 0.5 0.4 0.5 0.4 0.5 0.4 0.5 0.4 0.5 0.4 0.5 0.4 0.5 0.4 0.5 0.4 0.5 0.4 0.5 0.4 0.5 0.4 0.5 0.4 0.5 0.4 0.5 0.4 0.5 0.4 0.5 0.4 0.5 0.4 0.5 0.4 0.5 0.4 0.6 0.3 0.6 0.3 0.6 0.3 0.6 0.3 0.6 0.3 0.6 0.3 0.6 0.3 0.6 0.3 0.6 0.3 0.6 0.3 0.6 0.3 0.6 0.3 0.6 0.3 0.6 0.3 0.6 0.3 0.6 0.3 0.6 0.3 0.6 0.3 0.6 0.3 0.6 0.3 0.6 0.3 0.6 0.3 0.6 0.2 0.6 0.2 0.6 0.2 0.6 0.2 0.6 0.2 0.6 0.2 0.6 0.2 0.6 0.2 0.7 0.2 0.7 0.2 0.7 0.2 0.7 0.2 0.7 0.1 0.7 0.1 0.7 0.1 0.7 0.1 0.7 0.1 0.7 0.1 0.7 0.1 0.7 0.1 0.7 0.1 0.7 0.1 0.7V155.3l-0.1 0.7-0.1 0.7-0.1 0.7-0.1 0.7-0.1 0.7-0.1 0.7-0.1 0.7-0.1 0.7-0.2 0.7-0.2 0.7-0.2 0.7-0.2 0.7-0.2 0.7-0.4 1.4-0.3 0.8-0.3 0.7-0.3 0.7-0.3 0.7-0.3 0.7-0.3 0.7-0.3 0.7-0.3 0.7-0.3 0.7-0.3 0.7-0.4 0.7-0.4 0.7-0.4 0.7-0.4 0.7-0.4 0.7-0.4 0.7-0.4 0.7-0.4 0.7-0.4 0.7-0.4 0.7-0.5 0.7-0.5 0.7-0.5 0.7-0.5 0.7-0.5 0.7-0.5 0.7-0.5 0.7-0.5 0.7-0.5 0.7-0.5 0.7-0.5 0.7-0.5 0.7-0.5 0.7-0.6 0.7-0.6 0.7-0.6 0.7-0.6 0.7-0.6 0.7-0.6 0.7-0.6 0.7-0.6 0.7-0.6 0.7-0.6 0.7-0.6 0.7-0.6 0.7-0.6 0.7-0.6 0.7-0.6 0.7-0.6 0.7-0.7 0.7-0.7 0.7-0.7 0.7-0.7 0.7-0.7 0.7-0.7 0.7-0.7 0.7-0.7 0.7-0.7 0.7-0.7 0.7-0.7 0.7-0.7 0.7-0.7 0.7-0.7 0.7-0.7 0.7-0.7 0.7-0.7 0.7-0.7 0.7-0.7 0.7-0.7 0.7-0.7 0.7-0.7 0.7-0.7 0.7-0.7 0.7-0.8 0.7-0.8 0.7-0.8 0.7-0.8 0.7-0.8 0.7-0.8 0.7-0.8 0.7-0.8 0.7-0.8 0.7-0.8 0.7-0.8 0.7-0.8 0.7-0.8 0.7-0.8 0.7-0.8 0.7-0.8 0.7-0.8 0.7-0.8 0.7-0.8 0.7-0.8 0.7-0.8 0.7-0.8 0.7-0.8 0.7-0.8 0.7-0.8 0.7-1.6 1.5-2.3 1.6-2.5 0.7-2.6-0.1-2.5-0.9-2.1-1.7-1.6-2.4-0.7-2.5 0.1-2.6 0.9-2.5 1.7-2.2 1.6-1.5 0.8-0.7 0.8-0.7 0.8-0.7 0.8-0.7 0.8-0.7 0.8-0.7 0.8-0.7 0.8-0.7 0.8-0.7 0.8-0.7 0.8-0.7 0.8-0.7 0.8-0.7 0.8-0.7 0.8-0.7 0.8-0.7 0.8-0.7 0.8-0.7 0.7-0.7 0.7-0.7 0.7-0.7 0.7-0.7 0.7-0.7 0.7-0.7 0.7-0.7 0.7-0.7 0.7-0.7 0.7-0.7 0.7-0.7 0.7-0.7 0.7-0.7 0.7-0.7 0.7-0.7 0.7-0.7 0.7-0.7 0.7-0.7 0.7-0.7 0.7-0.7 0.7-0.7 0.7-0.7 0.7-0.7 0.7-0.7 0.6-0.7 0.6-0.7 0.6-0.7 0.6-0.7 0.6-0.7 0.6-0.7 0.6-0.7 0.6-0.7 0.6-0.7 0.6-0.7 0.6-0.7 0.6-0.7 0.6-0.7 0.6-0.7 0.6-0.7 0.5-0.7 0.5-0.7 0.5-0.7 0.5-0.6 0.5-0.6 0.5-0.6 0.5-0.6 0.5-0.6 0.5-0.6 0.5-0.6 0.5-0.6 0.5-0.6 0.4-0.6 0.4-0.6 0.4-0.6 0.4-0.6 0.4-0.6 0.4-0.6 0.4-0.6 0.4-0.6 0.4-0.6 0.4-0.6 0.3-0.6 0.3-0.6 0.3-0.6 0.3-0.6 0.3-0.6 0.3-0.6 0.3-0.6 0.3-0.5 0.3-0.5 0.3-0.5 0.2-0.5 0.2-0.5 0.2-0.5 0.2-0.5 0.2-0.5 0.2-0.5 0.2-0.5 0.2-0.5 0.1-0.4 0.3-1 0.1-0.5 0.1-0.5 0.1-0.5 0.1-0.5 0.1-0.5 0.1-0.4 0.1-0.4 0.1-0.4 0.1-0.4 0.1-0.4V146.4l-1.2-0.4-0.1-0.4-0.1-0.4-0.1-0.4-0.1-0.4-0.1-0.4-0.1-0.4-0.1-0.4-0.1-0.4-0.1-0.4-0.1-0.4-0.1-0.4-0.1-0.4-0.1-0.4-0.1-0.4-0.2-0.4-0.2-0.4-0.2-0.4-0.2-0.4-0.2-0.4-0.2-0.4-0.2-0.4-0.2-0.4-0.2-0.4-0.2-0.4-0.2-0.4-0.2-0.4-0.2-0.4v-0.2l-0.2-0.4-0.2-0.4-0.2-0.4-0.3-0.4-0.3-0.4-0.3-0.5-0.3-0.5-0.3-0.5-0.3-0.5-0.3-0.5-0.3-0.5-0.3-0.5-0.3-0.5-0.3-0.5-0.3-0.5-0.3-0.5-0.3-0.5-0.3-0.5-0.3-0.5-0.3-0.5-0.3-0.5-0.3-0.5-0.3-0.5-0.3-0.5-0.3-0.5-0.3-0.5-0.3-0.5-0.4-0.5-0.4-0.5-0.4-0.5-0.4-0.5-0.4-0.5-0.4-0.5-0.4-0.5-0.4-0.5-0.4-0.5-0.4-0.5-0.4-0.5-0.4-0.5-0.4-0.5-0.4-0.5-0.4-0.5-0.4-0.5-0.4-0.5-0.1 2.5zM458.8 116.3l0.8-1.2 0.6-1.3 0.4-1.3 0.1-1.4-0.1-1.4-0.3-1.3-0.5-1.3-0.7-1.2-0.9-1.1-1.1-1-1.2-0.8-1.3-0.6-1.3-0.4-1.4-0.1-1.4 0.1-1.3 0.3-1.3 0.5-1.2 0.7-1.1 0.9-1 1.1-0.4 0.5-0.4 0.5-0.4 0.5-0.4 0.5-0.4 0.5-0.4 0.5-0.4 0.5-0.4 0.5-0.4 0.5-0.4 0.5-0.4 0.5-0.4 0.5-0.4 0.5-0.4 0.5-0.4 0.5-0.4 0.5-0.4 0.5-0.4 0.5-0.4 0.5-0.4 0.5-0.4 0.5-0.4 0.5-0.4 0.5-0.4 0.5-0.4 0.5-0.4 0.5-0.4 0.5-0.4 0.5-0.4 0.5-0.4 0.5-0.4 0.5-0.4 0.5-0.4 0.6-0.4 0.6-0.3 0.6-0.3 0.6-0.3 0.6-0.3 0.6-0.3 0.6-0.3 0.6-0.3 0.6-0.3 0.6-0.3 0.6-0.3 0.6-0.3 0.6-0.3 0.6-0.3 0.6-0.3 0.6-0.3 0.6-0.3 0.6-0.3 0.6-0.3 0.6-0.3 0.6-0.3 0.6-0.3 0.6-0.2 0.6-0.2 0.6-0.2 0.6-0.2 0.6-0.2 0.6-0.2 0.6-0.2 0.6-0.2 0.7-0.2 0.7-0.2 0.7-0.2 0.7-0.2 0.7-0.1 0.7-0.1 0.7-0.1 0.7-0.1 0.7-0.1 0.7-0.1 0.7-0.1 0.7-0.1 0.7-0.1 0.7-0.1 0.7V155.6l0.1 0.7 0.1 0.7 0.1 0.7 0.1 0.7 0.1 0.7 0.1 0.7 0.1 0.7 0.1 0.7 0.2 0.7 0.2 0.7 0.2 0.7 0.2 0.7 0.2 0.7 0.4 1.4 0.3 0.8 0.3 0.7 0.3 0.7 0.3 0.7 0.3 0.7 0.3 0.7 0.3 0.7 0.3 0.7 0.3 0.7 0.3 0.7 0.4 0.7 0.4 0.7 0.4 0.7 0.4 0.7 0.4 0.7 0.4 0.7 0.4 0.7 0.4 0.7 0.4 0.7 0.4 0.7 0.5 0.7 0.5 0.7 0.5 0.7 0.5 0.7 0.5 0.7 0.5 0.7 0.5 0.7 0.5 0.7 0.5 0.7 0.5 0.7 0.5 0.7 0.5 0.7 0.5 0.7 0.6 0.7 0.6 0.7 0.6 0.7 0.6 0.7 0.6 0.7 0.6 0.7 0.6 0.7 0.6 0.7 0.6 0.7 0.6 0.7 0.6 0.7 0.6 0.7 0.6 0.7 0.6 0.7 0.6 0.7 0.6 0.7 0.7 0.7 0.7 0.7 0.7 0.7 0.7 0.7 0.7 0.7 0.7 0.7 0.7 0.7 0.7 0.7 0.7 0.7 0.7 0.7 0.7 0.7 0.7 0.7 0.7 0.7 0.7 0.7 0.7 0.7 0.7 0.7 0.7 0.7 0.7 0.7 0.7 0.7 0.7 0.7 0.7 0.7 0.7 0.7 0.7 0.7 0.7 0.7 0.7 0.7 0.8 0.7 0.8 0.7 0.8 0.7 0.8 0.7 0.8 0.7 0.8 0.7 0.8 0.7 0.8 0.7 0.8 0.7 0.8 0.7 0.8 0.7 0.8 0.7 0.8 0.7 0.8 0.7 0.8 0.7 0.8 0.7 0.8 0.7 0.8 0.7 0.8 0.7 0.8 0.7 0.8 0.7 0.8 0.7 0.8 0.7 0.8 0.7 1.6 1.5 2.4 1.6 2.6 0.7 2.7-0.1 2.6-0.9 2.2-1.7 1.6-2.4 0.7-2.6-0.1-2.7-0.6 0.8-1.7-2.2-1.6-1.5-0.8-0.7-0.8-0.7-0.8-0.7-0.8-0.7-0.8-0.7-0.8-0.7-0.8-0.7-0.8-0.7-0.8-0.7-0.5-1-0.8-0.7-0.8-0.7-0.8-0.7-0.8-0.7-0.8-0.7-0.8-0.7-0.8-0.7-0.8-0.7-0.7-0.7-0.7-0.7-0.7-0.7-0.7-0.7-0.7-0.7-0.7-0.7-0.7-0.7-0.7-0.7-0.7-0.7-0.7-0.7-0.7-0.7-0.7-0.7-0.7-0.7-0.7-0.7-0.7-0.7-0.7-0.7-0.7-0.7-0.7-0.7-0.7-0.7-0.7-0.7-0.7-0.7-0.7-0.7-0.7-0.7-0.7-0.7-0.6-0.7-0.6-0.7-0.6-0.7-0.6-0.7-0.6-0.7-0.6-0.7-0.6-0.7-0.6-0.7-0.6-0.7-0.6-0.7-0.6-0.7-0.6-0.7-0.6-0.7-0.6-0.7-0.6-0.7-0.5-0.7-0.5-0.7-0.5-0.7-0.5-0.6-0.5-0.6-0.5-0.6-0.5-0.6-0.5-0.6-0.5-0.6-0.5-0.6-0.5-0.6-0.5-0.6-0.4-0.6-0.4-0.6-0.4-0.6-0.4-0.6-0.4-0.6-0.4-0.6-0.4-0.6-0.4-0.6-0.4-0.6-0.4-0.6-0.3-0.6-0.3-0.6-0.3-0.6-0.3-0.6-0.3-0.6-0.3-0.6-0.3-0.6-0.3-0.5-0.3-0.5-0.3-0.5-0.2-0.5-0.2-0.5-0.2-0.5-0.2-0.5-0.2-0.5-0.2-0.5-0.2-0.5-0.2-0.5-0.1-0.4-0.3-1-0.1-0.5-0.1-0.5-0.1-0.5-0.1-0.5-0.1-0.5-0.1-0.4-0.1-0.4-0.1-0.4-0.1-0.4-0.1-0.4V150.4l0.1-0.4 0.1-0.4 0.1-0.4 0.1-0.4 0.1-0.4 0.1-0.4 0.1-0.4 0.1-0.4 0.1-0.4 0.1-0.4 0.1-0.4 0.1-0.4 0.1-0.4 0.1-0.4 0.1-0.4 0.2-0.4 0.2-0.4 0.2-0.4 0.2-0.4 0.2-0.4 0.2-0.4 0.2-0.4 0.2-0.4 0.2-0.4 0.2-0.4 0.2-0.4 0.2-0.4 0.2-0.4 0.2-0.4 0.2-0.4 0.2-0.4 0.2-0.4 0.3-0.5 0.3-0.5 0.3-0.5 0.3-0.5 0.3-0.5 0.3-0.5 0.3-0.5 0.3-0.5 0.3-0.5 0.3-0.5 0.3-0.5 0.3-0.5 0.3-0.5 0.3-0.5 0.3-0.5 0.3-0.5 0.3-0.5 0.3-0.5 0.3-0.5 0.3-0.5 0.3-0.5 0.3-0.5 0.3-0.5 0.3-0.5 0.4-0.5 0.4-0.5 0.4-0.5 0.4-0.5 0.4-0.5 0.4-0.5 0.4-0.5 0.4-0.5 0.4-0.5 0.4-0.5 0.4-0.5 0.4-0.5 0.4-0.5 0.4-0.5 0.4-0.5 0.4-0.5 0.4-0.5 0.1-0.8z" fill="#66605A" p-id="975"></path><path d="M444 270c0-37.6 30.4-68 68-68s68 30.4 68 68-30.4 68-68 68-68-30.4-68-68zM432.5 392c28.9 0.3 60.9 10.1 73.3 14.5 7.4 2.7 9.8 1.8 9.9 2.2l-0.2 0.5c1.5-0.3 3.4-0.8 5.8-1.7 19.8-7.1 89.8-27.9 117.2-1.5 27.4 26.3 51 107.1 47.2 159.5s-44.6 124.1-70 155-65.4 33.7-82.2 30.4c-6.3-1.2-10-1.4-12.4-3.9l-1.6-2.7V453.1h-2.9l0.2-7.5c0.4-18.3-1.7-27.3-3.3-31.6v-0.1l-0.5 1.6c-1.4 5-2.8 13.8-2.5 29l0.2 8.6h-2.9v290.2L506 746c-2.4 2.5-6.1 2.7-12.4 3.9-16.7 3.3-56.8 0.5-82.2-30.4s-66.2-102.6-70-155 19.8-133.2 47.2-159.5c10.3-9.9 26.5-13.2 43.9-13z" fill="#976C4F" p-id="976"></path><path d="M511.5 262c57.8 0 106.8 20.6 123.1 48.9l1.8 3.7 0.6 0.6c1.3 2 2.3 4.2 2.9 6.6l19.5 78.3c3.4 13.8-7.1 27-21.3 26.7l-56.5-1.2c-2.4 0-4.7 0.3-6.9 1l-0.8 0.4-0.6 1.9C563.1 453 539.2 470 511.4 470s-51.7-16.9-61.9-41.1l-0.7-2.3-64.2 0.6c-14 0.1-24.4-13.1-21-26.7l19.6-78.6c0.6-2.4 1.6-4.6 2.9-6.6l0.4-0.4 1.9-3.9c16.3-28.4 65.3-49 123.1-49z" fill="#66605A" p-id="977"></path></svg>