<?xml version="1.0" standalone="no"?><!DOCTYPE svg PUBLIC "-//W3C//DTD SVG 1.1//EN" "http://www.w3.org/Graphics/SVG/1.1/DTD/svg11.dtd"><svg t="1586448515531" class="icon" viewBox="0 0 1024 1024" version="1.1" xmlns="http://www.w3.org/2000/svg" p-id="1225" xmlns:xlink="http://www.w3.org/1999/xlink" width="200" height="200"><defs><style type="text/css"></style></defs><path d="M133 909.5c0-24.6 169.7-44.5 379-44.5s379 19.9 379 44.5S721.3 954 512 954s-379-19.9-379-44.5z" fill="#EDEDEE" p-id="1226"></path><path d="M299.4 823.3C259.5 789.1 450.4 618 528.5 618s277.8 171.1 239.7 205.3c-38.2 34.3-428.8 34.3-468.8 0z" fill="#66605A" p-id="1227"></path><path d="M696.9 167c-122 139.2-185.5 322.3-173.5 510 3.6-0.2 7.1-0.5 10.7-0.7-11.8-184.8 50.7-365.1 170.9-502.2-2.7-2.4-5.4-4.7-8.1-7.1z" fill="#44BC7D" p-id="1228"></path><path d="M458.9 377c-28.1 84.4 14 161.7 74.4 167 8.8-72.9-17.1-145.8-74.4-167z" fill="#7CD0A4" p-id="1229"></path><path d="M668 446.5c-19.7 57.4-74.1 102.6-135 97 9.9-76.7 78.1-118.2 135-97zM515.2 246c-42.1 78.7-14.1 162.1 44.1 178 21.1-70.1 8.3-146.9-44.1-178z" fill="#7CD0A4" p-id="1230"></path><path d="M709 351.2c-29.5 53.8-90.9 89-150 72.8 23.1-74.3 97.6-103.9 150-72.8zM594 127c-55.9 69.9-42.7 156.2 12.1 182 33.1-64.7 34.3-142.4-12.1-182z" fill="#7CD0A4" p-id="1231"></path><path d="M767 264.2c-38.9 47.6-105.6 71.1-161 44.9 35.8-68.2 114.8-84.4 161-44.9zM781 93c-15.5 67.4-65.6 122.7-130.5 143-7.1-68.9 60.1-142.8 130.5-143z" fill="#7CD0A4" p-id="1232"></path><path d="M560.2 561.1c-9.4 5.5-18 13.2-25.4 21.7-1.3 18.3-1.9 36.7-1.7 55.1 4.8-26.9 17.7-48.6 34-62.8 24.7-21.7 51.4-24.3 80-19.8-29.3-9.6-57.3-11.7-86.9 5.8zM501.2 573.8c8.2 7.7 15.4 16.9 21.8 26.4-0.8 18.5-0.9 37.1-0.3 55.8-6-27.5-16.9-50.3-30.6-68.2-23.9-31.2-48.6-39.6-74.1-41.3 27-4.3 53.9-0.6 83.2 27.3zM781.8 426C702.5 516.9 661.2 636.4 669 759c2.3-0.1 4.6-0.3 7-0.4-7.7-120.7 33-238.4 111.1-327.9-1.8-1.6-3.6-3.1-5.3-4.7z" fill="#44BC7D" p-id="1233"></path><path d="M626.8 563c-18.2 55.1 9.1 105.6 48.2 109 5.6-47.6-11.2-95.2-48.2-109z" fill="#7CD0A4" p-id="1234"></path><path d="M763 608.6c-12.9 37.3-48.3 66.7-88 63.1 6.5-49.9 50.9-76.9 88-63.1zM663.4 478c-27.9 51.3-9.4 105.6 29.2 116 14-45.7 5.5-95.8-29.2-116z" fill="#7CD0A4" p-id="1235"></path><path d="M790 546.8c-19.3 34.5-59.4 57-98 46.6 15.1-47.5 63.8-66.5 98-46.6zM715 400c-37.3 45.7-28.5 102.2 8.1 119 22-42.3 22.8-93.1-8.1-119z" fill="#7CD0A4" p-id="1236"></path><path d="M828 489.8c-25.4 30.9-68.8 46.2-105 29.2 23.4-44.4 74.9-54.9 105-29.2zM837 378c-10.1 43.8-43.1 79.8-85.7 93-4.6-44.8 39.5-92.9 85.7-93z" fill="#7CD0A4" p-id="1237"></path><path d="M692.6 683.5c-6.1 3.6-11.7 8.5-16.5 14-0.8 11.8-1.2 23.6-1.1 35.5 3.1-17.4 11.5-31.3 22.1-40.4 15.8-13.7 32.9-15.7 51.9-12.7-18.4-6.2-36.7-8-56.4 3.6zM653.9 691.7c5.3 5 10 11 14.1 17.1-0.5 12-0.6 24.1-0.2 36.2-3.9-17.9-11-32.6-19.8-44.2-15.3-20-31.3-25.6-48-26.8 17.5-2.8 35-0.3 53.9 17.7zM242.2 438c79.3 90.9 120.6 210.4 112.8 333-2.3-0.1-4.6-0.3-7-0.4 7.7-120.7-33-238.4-111.1-327.9 1.8-1.6 3.6-3.1 5.3-4.7z" fill="#44BC7D" p-id="1238"></path><path d="M398.1 575c18.5 55.1-9.2 105.6-49 109-5.8-47.6 11.3-95.2 49-109zM261 620.6c12.9 37.3 48.3 66.7 88 63.1-6.5-49.9-50.9-76.9-88-63.1zM360.9 490c27.3 51.3 9.2 105.6-28.6 116-13.7-45.7-5.4-95.8 28.6-116zM234 558c19.3 35.1 59.4 58 98 47.4-15.1-48.4-63.8-67.7-98-47.4zM309.5 412c36.5 45.7 27.9 102.2-7.9 119-21.6-42.3-22.4-93.1 7.9-119zM197 501.8c25.1 30.9 68.2 46.2 104 29.2-23.2-44.4-74.2-54.9-104-29.2zM187 390c10.1 43.8 43.1 79.8 85.7 93 4.6-44.8-39.5-92.9-85.7-93z" fill="#7CD0A4" p-id="1239"></path><path d="M331.4 695.5c6.1 3.6 11.7 8.5 16.5 14 0.8 11.8 1.2 23.6 1.1 35.5-3.1-17.4-11.5-31.3-22.1-40.4-15.8-13.7-32.9-15.7-51.9-12.7 18.4-6.2 36.7-8 56.4 3.6zM370.1 703.7c-5.3 5-10 11-14.1 17.1 0.5 12 0.6 24.1 0.2 36.2 3.9-17.9 11-32.6 19.8-44.2 15.3-20 31.3-25.6 48-26.8-17.5-2.8-35-0.3-53.9 17.7z" fill="#44BC7D" p-id="1240"></path></svg>