<?xml version="1.0" standalone="no"?><!DOCTYPE svg PUBLIC "-//W3C//DTD SVG 1.1//EN" "http://www.w3.org/Graphics/SVG/1.1/DTD/svg11.dtd"><svg t="1586448520225" class="icon" viewBox="0 0 1024 1024" version="1.1" xmlns="http://www.w3.org/2000/svg" p-id="1361" xmlns:xlink="http://www.w3.org/1999/xlink" width="200" height="200"><defs><style type="text/css"></style></defs><path d="M198.1 890.3l264.1-731.5c16.1-45.1 34.5-56 55.9-56 21.2 0 39.6 10.9 55.9 56l264 731.5H198.1z" fill="#E84E2F" p-id="1362"></path><path d="M384.1 405.9H652l-54.7-153.1h-157z" fill="#EAEAEA" p-id="1363"></path><path d="M246.8 774l-42.1 116.3h626.5L789.3 774z" fill="#E8372E" p-id="1364"></path><path d="M266.4 722.9h503.3l-56.4-153.3H322.8z" fill="#EAEAEA" p-id="1365"></path><path d="M967.3 911.7c0 18.7-18.4 34.1-40.9 34.1H115.6c-22.5 0-40.9-15.4-40.9-34.1 0-18.7 18.4-34.1 40.9-34.1h811c22.3 0 40.7 15.4 40.7 34.1z" fill="#5E0B00" p-id="1366"></path><path d="M964.6 899.8c-5.8-12.9-20.9-22.2-38.3-22.2H115.6c-17.6 0-32.5 9.3-38.3 22.2h887.3z" fill="#820D04" p-id="1367"></path></svg>