<?xml version="1.0" standalone="no"?><!DOCTYPE svg PUBLIC "-//W3C//DTD SVG 1.1//EN" "http://www.w3.org/Graphics/SVG/1.1/DTD/svg11.dtd"><svg t="1586448522897" class="icon" viewBox="0 0 1024 1024" version="1.1" xmlns="http://www.w3.org/2000/svg" p-id="1488" xmlns:xlink="http://www.w3.org/1999/xlink" width="200" height="200"><defs><style type="text/css"></style></defs><path d="M169.797 912.796c-41.164 0-74.653-33.489-74.653-74.653V94.738c0-41.164 33.489-74.653 74.653-74.653h701.734c41.164 0 74.653 33.489 74.653 74.653v743.406c0 41.164-33.489 74.653-74.653 74.653H169.797z" fill="#E3DCC8" p-id="1489"></path><path d="M245.06 1000.811c-36.018 0-65.321-29.302-65.321-65.32v-78.036c0-36.018 29.303-65.32 65.321-65.32h76.811c36.018 0 65.321 29.302 65.321 65.32v78.036c0 36.018-29.303 65.32-65.321 65.32H245.06z" fill="#E3DCC8" p-id="1490"></path><path d="M245.06 838.792h76.811c10.307 0 18.663 8.356 18.663 18.663v78.035c0 10.307-8.356 18.663-18.663 18.663H245.06c-10.307 0-18.663-8.356-18.663-18.663v-78.035c0-10.308 8.356-18.663 18.663-18.663z" fill="#73748B" p-id="1491"></path><path d="M702.129 1000.811c-36.019 0-65.321-29.302-65.321-65.32v-78.036c0-36.018 29.302-65.32 65.321-65.32h76.81c36.019 0 65.321 29.302 65.321 65.32v78.036c0 36.018-29.302 65.32-65.321 65.32h-76.81z" fill="#E3DCC8" p-id="1492"></path><path d="M702.129 838.792h76.811c10.307 0 18.663 8.356 18.663 18.663v78.035c0 10.307-8.356 18.663-18.663 18.663h-76.811c-10.307 0-18.663-8.356-18.663-18.663v-78.035c0-10.308 8.356-18.663 18.663-18.663z" fill="#73748B" p-id="1493"></path><path d="M169.797 66.743h701.734c15.461 0 27.995 12.534 27.995 27.995v743.406c0 15.461-12.534 27.995-27.995 27.995H169.797c-15.461 0-27.995-12.534-27.995-27.995V94.738c0.001-15.461 12.534-27.995 27.995-27.995z" fill="#778D78" p-id="1494"></path><path d="M259.349 161.575h541.406c10.307 0 18.663 8.356 18.663 18.663v572.405c0 10.307-8.356 18.663-18.663 18.663H259.349c-10.307 0-18.663-8.356-18.663-18.663V180.239c0-10.308 8.356-18.664 18.663-18.664z" fill="#69ACA6" p-id="1495"></path><path d="M282.598 284.191l82.451 144.429 70.939-30.32-82.451-144.43-70.939 30.321zM462.492 541.93l82.451 144.429 70.939-30.321-82.451-144.428-70.939 30.32z m-235.123 42.434l53.12 55.552 130.707-104.332-53.12-55.549-130.707 104.329zM656.15 364.712l-53.119-55.552-130.707 104.333 53.12 55.549 130.706-104.33z" fill="#233645" p-id="1496"></path><path d="M441.76 373.126c53.078 0 96.107 43.423 96.107 96.988 0 53.566-43.029 96.989-96.107 96.989-53.079 0-96.108-43.423-96.108-96.989 0-53.565 43.028-96.988 96.108-96.988z" fill="#C2C8C8" p-id="1497"></path><path d="M441.76 432.176c20.763 0 37.595 16.986 37.595 37.939s-16.832 37.939-37.595 37.939c-20.763 0-37.595-16.986-37.595-37.939s16.831-37.939 37.595-37.939z" fill="#6C3B2C" p-id="1498"></path><path d="M441.759 205.279c-146.265 0-264.836 118.571-264.836 264.836s118.571 264.836 264.836 264.836S706.595 616.38 706.595 470.115 588.024 205.279 441.759 205.279z m0 469.833c-112.616 0-203.91-91.294-203.91-203.91s91.294-203.91 203.91-203.91 203.91 91.293 203.91 203.91-91.293 203.91-203.91 203.91z" fill="#E6E1DB" p-id="1499"></path><path d="M751.797 379.92h22.49c8.341 0 15.103 8.356 15.103 18.663v135.716c0 10.307-6.762 18.663-15.103 18.663h-22.49c-8.341 0-15.103-8.356-15.103-18.663V398.583c0-10.308 6.762-18.663 15.103-18.663z" fill="#F2A975" p-id="1500"></path></svg>