<?xml version="1.0" standalone="no"?><!DOCTYPE svg PUBLIC "-//W3C//DTD SVG 1.1//EN" "http://www.w3.org/Graphics/SVG/1.1/DTD/svg11.dtd"><svg t="1586448512033" class="icon" viewBox="0 0 1024 1024" version="1.1" xmlns="http://www.w3.org/2000/svg" p-id="1098" xmlns:xlink="http://www.w3.org/1999/xlink" width="200" height="200"><defs><style type="text/css"></style></defs><path d="M133 909.5c0-24.6 169.7-44.5 379-44.5s379 19.9 379 44.5S721.3 954 512 954s-379-19.9-379-44.5z" fill="#EDEDEE" p-id="1099"></path><path d="M444.9 224.7c192.4-35.8 377.4 91.2 413.2 283.6L800 519.1c-29.8-160.4-184-266.2-344.4-236.3-160.4 29.8-266.2 184-236.3 344.4l-58 10.8c-35.8-192.5 91.2-377.5 283.6-413.3z" fill="#7CD0A4" p-id="1100"></path><path d="M455.7 282.8c160.4-29.8 314.5 76 344.4 236.3L742 529.9C718.2 401.6 594.8 317 466.5 340.8 338.2 364.7 253.6 488 277.4 616.3l-58.1 10.8c-29.7-160.3 76.1-314.5 236.4-344.3z" fill="#FED572" p-id="1101"></path><path d="M466.5 340.8C594.8 317 718.2 401.6 742 529.9l-58 10.8C666.1 444.5 573.6 381 477.3 398.9c-96.2 17.9-159.7 110.4-141.8 206.6l-58.1 10.8c-23.8-128.2 60.9-251.6 189.1-275.5z" fill="#FC7968" p-id="1102"></path><path d="M477.3 398.9C573.6 381 666.1 444.5 684 540.7l-58.1 10.8C614 487.4 552.3 445.1 488.1 457c-64.1 11.9-106.5 73.6-94.5 137.7l-58.1 10.8c-17.9-96.2 45.6-188.7 141.8-206.6z" fill="#63A3FB" p-id="1103"></path><path d="M294.5 502c29.3 0 53.7 20.8 59.4 48.4l0.4 3.6 2.7-0.3c35.9 0 65 29.1 65 65.1 0 36-29.1 65.1-65 65.1-3.9 0-7.8-0.3-11.5-1l-3.4 4.1c-11.8 11.8-28 19.1-46 19.1-9 0-17.5-1.8-25.3-5.1l-7.7-4.2-2.8 3.4c-11 11-26.1 17.8-42.9 17.8s-31.9-6.8-42.9-17.8l-7.2-8.7-7.7 3c-5.7 1.8-11.7 2.7-18 2.7-33.5 0-60.6-27.2-60.6-60.7s27.1-60.7 60.6-60.7c4.2 0 8.3 0.4 12.2 1.2l5.8 1.8 1.8-5.9c9.2-21.8 30.7-37 55.9-37 4.2 0 8.3 0.4 12.2 1.2l8.8 2.7 0.3-1c9.3-21.5 30.8-36.8 55.9-36.8zM729.5 419c-29.3 0-53.7 20.8-59.4 48.4l-0.4 3.6-2.7-0.3c-35.9 0-65 29.1-65 65.1 0 36 29.1 65.1 65 65.1 3.9 0 7.8-0.3 11.5-1l3.4 4.1c11.8 11.8 28 19.1 46 19.1 9 0 17.5-1.8 25.3-5.1l7.7-4.2 2.8 3.4c11 11 26.1 17.8 42.9 17.8 16.7 0 31.9-6.8 42.9-17.8l7.2-8.7 7.7 3c5.7 1.8 11.7 2.7 18 2.7 33.5 0 60.6-27.2 60.6-60.7S915.9 493 882.4 493c-4.2 0-8.3 0.4-12.2 1.2l-5.8 1.8-1.8-5.9c-9.2-21.8-30.7-37-55.8-37-4.2 0-8.3 0.4-12.2 1.2l-8.8 2.7-0.3-1c-9.4-21.7-30.9-37-56-37z" fill="#A3DFFD" p-id="1104"></path></svg>